<?xml version="1.0" encoding="UTF-8"?>
<svg id="Layer_1" xmlns="http://www.w3.org/2000/svg" version="1.1" viewBox="0 0 1800 500">
  <!-- Generator: Adobe Illustrator 29.7.1, SVG Export Plug-In . SVG Version: 2.1.1 Build 8)  -->
  <defs>
    <style>
      .st0 {
        fill: #497594;
      }

      .st1 {
        fill: #78a03f;
      }
    </style>
  </defs>
  <g>
    <g>
      <g>
        <path class="st1" d="M376.83,197.38c2.36-2.04,3.6-5.8,1.91-8.85-1.7-4.67-10.02-3.1-12.49-3.56-1.51-1.78,1-5.89-3.53-4.78-11.13,2.11-22.01-4.27-12.7-6.66,2.64-.68,5.35-.82,7.99-.9,3.03-.11.81-1.61-.67-2.15-1.02-.58-3.43-1.3-2.52-2.8,1.09-1.36,4.83,0,7.38.36,4.11.59,8.28-1.15,12.81-1.08,1.35.3,4.16-.71,2.23-2.21-1.38-.61-3.16-.6-4.67-1.01-2.25-.93-24.94-2.18-19.09-7.29.87-.36,2.24-.42,2.33-1.57.16-1.48-3.21-2.5-3.29-3.73,3.01-.65,11.98,1,14.91.87.66-.02.89-.34.24-.81-3.41-2-.49-6.52,1.46-8.6,6.14-4.88-6.58-6.64,9.52-9.15,2.56,1.25,5.04,4.06,7.56,5.6.83.64,2.08.89,1.82,1.76-.77.73-3.01,1.67-2.31,2.86.5,1.15,1.33,1.19,2.3,1.47,5.69,1.58,25.12,6.89,27.8,7.67,1.26.78,2.07,3.69-.27,3.77-5.36,1.34-10.87,1.63-16.16,1.65-.46.41.06,1.69.14,2.52-.08,1.89-4.78.4-5.76,1.22-1.1,1.2.21,3.92,1.48,4.69,2.29,1.12,7.97,3.34,11.29,4.25,3.87.79,9.08-1.34,11.37,3.38,2.15,2.34,6.32.16,8.94,1.62.99,1.12.61,3,.1,4.2-1.32,2.45-4.09,1.2-6.56,2.48-1.77.72-2.38,3.09-4.15,3.67-3.51.95-9.55-1.2-12.1,2.53,2.17,2.42,7.48,2.22,9.6,5.39,3.83,4.52-3.76,2.67-6.9,4.5-1.13.65-1.34,2-1.9,3.07-.97,2.11-4.34,1.57-6.16,2.38-1.86.93,1.1.98,1.88.96,4.76.12,7.5,4.02,11.93,4.33,1.6.18,3.45.14,4.89.83,4.51,2.83-2.32,6.61-5.26,7.82-1.95.88-4.38,1.66-6.29,2.09-.81.2-1.24.43-1.15.92,2.29,4.92,10.91,9.58,7.79,15.55-1.43,1.21-5.08,4.63-1.57,5.65,19.52,2.36,31.16,8.75,4.18,13.39-9.16,1.79-21.65-6.09-28.56-1.17-1.23.86-.8,1.5.45,1.65,8.55.88,17.63.21,25.99,2.14,5.41,1.65,35.27,5.46,16.5,9.92-2.27,1.83,2.63,6.19,2.86,8.87-.25.86-1.47,1.36-2.38,1.71-5.71,1.63-6.22,10.78-12.7,11.32-.64.15-.7.54-.58,1.06.26,1.38,1.76,4.35.56,5.61-2.85,1.07-7.21.65-10.25,1.52-3.21.85-4.22,6.7-9.09,5.81-3.97.03.71-6.13.14-7.88-.24-.67-1.07-.56-1.71-.65-5.05.42-12.09-5.52-16.5-3.17-2.54,10.98-1.96,22.9-1.82,34.13.63,8.97-1.48,38.52,5.8,43.12,3.56.71,15.9,2.25,21.99,2.47,4.71.14,17.47-2.19,24.95-1.8,3.05-.09,7.45,1.58,5.18,4.68-4.84,2.6-52.74,30.63-69.72,40.29-.79.26-1.85.37-2.83.52-61.85,8.52-149.19,7.63-205.33-21.22-1.78-1.71-.58-4.22.88-5.79,10.53-12.29,37.61-16.73,51.98-15.29,7.38.96,15.93,3.3,23.35,3.15,3.15-.2,5.91-.32,7.69-2.33,2.02-3.81,4.73-27.62,4.44-34.15-.29-4.96-5.31-8.75-5.2-13.96-.1-3.78,2.83-6.32,4.36-9.44,2.85-7.06,2.92-17.03,2.39-24.77-1.36-13.29-4.13-3.54-10.46-6.77-.7-.76-1.56-1.78-2.64-1.9-.7-.1-1.47.17-1.86.79-.96,1.82-4.16,5.88-7.53,5.67-5.67.28-15.2-11.26-18.06-1.48-.91,1.6-2.59,1.41-4.26.87-3.3-.7-6.91-4.43-9.98-1.63-3.66,2.81-7.93,5.85-10.15-.52-1.73-3.88,2.07-3.76,4.19-5.49,2.34-4.46-.47-9.8,7.14-7.17,14,2.41-4.69-16.91,13.58-18.09,3.36-.4,6.24,1.47,8.87-.97,5.67-6.28-4.33-1.02-6.96-2.44-7.43-5-5.32-3.09-14.16-2.18-5.96.56,3.58,5.24,3.31,7.75.13,1.29-1,1.95-2.94,2.47-2.15.55-4.12,1.35-5.96,1.37-2.29.03-4.89-3.15-7.06-1.72-.59.59.07,1.74,1.1,2.35,1.87,1.13,4.36,1.72,5.45,3.83,1.25,1.82.36,5.13-1.29,5.26-2.23.05-3.96-2.56-5.92-3.58-3.21-3.4-17.69,1.12-9.4-5.66,1.48-1.15,3.66-2.45,4.78-3.76,1.77-1.79,0-4-2.05-2.81-2.55.95-3.68,5.48-6.68,4.95-1.57-.47-2.98-2.52-5.14-2.69-.88-.14-1.63-.59-1.03-1.55,2.23-4.22,4.92-7.75,8.64-10.69.55-.73-.3-1.06-1.14-1.53-10.32-4.87,2.27-11.34,8.04-12.52,10.64-2.67,21.99-.64,32.5-.84,5.37.08,10.63-3.18,16.07-2.9,4.97-.57,10.21,1.53,14.95.85,1.12-2.3-2.89-2.79-4.17-3.79-1.52-1.08-1.26-3.57-3.62-4.63-1.65-.77-5.54-1.31-4.58,1.61.67,2.03.67,2.16-1.41,2.19-8.05.56-27.17,1.91-30.63,2.14-7.12-2.63-14.65-4.85-22.36-5.22-1.09-.44,1.68-3.2.64-3.61-3.65-.38-9.33-.41-10.62-3.57-.98-2.32,1-3.35,3.08-2.94,6.1.52,10.83-4.26,15.1-4.61,6.17-.36,16.71,4.49,19.08-4.2.71-3.74-5.23-4.75-6.05-8.07-.76-4.5,5.41-7.52,8.32-9.62,1.09-1.28-1.68-2.47-1.32-3.8,1.32-2.81,11.28-5.14,7.94-8.78-1.73-1.45-5.52-1.19-8.01-1.16-.61-.02-1.24-.08-.84-.79.11-.19.27-.4.44-.62,3.01-3.08-11.52-.06-12.15-1.46-.32-.17-.72-.95-.23-1.42,1.29-1.26,3.48-2.72,1.48-4.57-4.28-4.14-12.17.55-17.27-1.04-2.38-1.27,1.7-2.63,3.07-3.49,7.3-8.97,14.32-4.39,23.16-4.29,2.81.15,5.05-3.21,7.24-4.13,2.38-.05,16.72.03,19.77-.04,1.09-.24.2-1.16-1.16-1.81-1.76-.95-5.95-.42-7.05-1.01-.69-.54-.49-1.54-.58-2.37.04-3.03-1.15-5.54-2.44-8.34-.55-2.56-3.61-3.58-4.09-5.71.39-2.94,8.56-4.67,7.1-6.82-.86-1.1-4.37-.8-5.09-1.68-.86-.8.76-3.1-.07-3.63-2.27-.23-17.44-1.06-21.46-1.32-3.35.05,5.16-4.26,1-4.25-5.43-.75-18.32-4.47-15.08-10.54,3.52-5.63,10.85-1.48,14.36-.57,1.96-.27,2.68-3.1,4.03-4.41,4.61-4.94,11.86-.32,17.04-1.18,5.08-1.69,14.55-5.46,18.43-7.08,2.78-1.04,5.89-4.5,4.67-7.37-1.39-3.91-8.94,1.02-9.48-3.25,2.29-4.89,10.76,1.58,12.21-4.28-2.8-3.64-16.84,2.54-21.62,1.79-7.04.53-11.65-5.81-18.56-5.66-2.05.46-3.37-1.69-2.62-3.45,1.74-1.94,10.52-2.43,15.85-3.78,2.58-.36,3.48-.9,5.87-.13,1.81.5,3.53,2.11,5.46,1.96,1.45-.12,2.22-1.57,3-2.73,2.45-6.17,12.95-3.18,16.78-3.78.7-.09.84-.38.84-1.17-.22-3.1.03-7.51,3.06-9.5,3.25-2.57,7.31-.56,9.68-3.17,5.45-8.66,11.27-1.11,17.99.78,1.12,1.43-1.01,3.49-1.44,4.95-1.79,4.8,5.07,2.82,7.02,4.82.35,1.65-6.91,2.3-5.01,3.55.51.1,2.57.86,1.72,1.49-3.15,2.23,6.36-.96,5.2,3.05-.22,3.52-4.17,2.71-6.51,3.34-1.49.37-2.16,1.6-3.88,2.48-1.65,1.05-3.73.28-5.43.98-.74.7.37,2.63,1.37,2.76,5.48.39,27.07-4.84,34.28-3.42-1.72,4.53-12.55,5.35-16.4,5.42,4.04,1,14.13.93,17.07,2.26,3.53,6.39-1.66,5.54-6.37,4.97-2.89.11-4.71,2.91-7.81,3.44-8.09,1.53-18,.85-26.44,1.41-3.03-.29-3.89,5.13-1.58,6.2,1.74.56,4.89-.8,7.58-.53,4.2.31,8.33,2.05,12.48,2.52,8.21,1.3,17.74-1.21,25.61.75-1.22,3.49-18.64,2.63-21.31,5.46-.14,5.31,20.68,3.27,20.79,8.05-1.02,2.7-5.59,1.74-8.08,2.22-2.73.22-5.08-.06-7.53.96-1.69.78-4.08,2.06-5.26,1.77-1.46-.44-1.99-2.27-3.16-3.15-.76-.69-1.55-.98-2.16-.14-1.71,2.7-.87,6.51-1.54,9.62-2.18,2.93-14.72-7.41-19.59-6.46-6.2-.39-4.21,24.61-3.6,26.27.61,1.63,2.48,1.36,4.03,2.26,4.1,2.56,6.4,4.04,11.22,3.13,2.59-.06,4.23,2.68,6.4,3.46,4.38.48,9.8-.57,14.25-1.6,1.72-.46,4.1-2.82,5.51-1.18,1.14,2.42,1.7,8.55,2.37,10.66.32,1.07,1.29.86,2.27.66,5.33-2.45,7.11,3.43,12.09,4.08,15.85,1.68-11.73,8.02-15.52,6.15-.97.05-.89.77-.78,1.62.67,2.72.21,7.47,1.37,9.89,2.11,2.57,7.59,2.45,7.5,6.82.03,2.86-1.07,7.52-.36,11.05,1.25,3.92-9.16-1.91-10.13-2.11-1.63-1.01-4.01-5.08-5.45-1.64-.32,3.51,4.28,6.84,6.84,8.77,2.37,1.33,6.34.28,9.32.81,3.34.51,6.7,3.05,9.54,3.32,3.34.52,8.39-1.78,10.67,1.52,1.89,4.46-2.21,4.82-5.37,6.08-4.27,2.02-3.56,4.35-3.05,8.52.12,2.37-1.76,5.7-.29,7.13,4.07,3-.4,4.92-3.59,3.7-1.24.25.11,2.39-.19,3.51-.08,2-.9,3.79-.2,5.31,1.04,1.66,3.08,4.92-.73,4.32-3.22-.59-5.24-3.75-7.93-5.12-1.34-.32-3.82,1-6.06.69-2.07-.46-2.85.65-2.48,2.91.52,10.86,15.54-5.88,16.42,11.83,1.64,8.02,16.42-3.36,17.73,7.17.35,9.39-29.43.43-31.92,5-.04,1.36,3.15,3.36,4.64,3.27,2.21-.66,6.77-2.84,9.17.51.93,1.15,2.21,2.58.51,2.63-3.38,0-14.91,0-17.7,0-2.54.23-2-3.74-3.63-4.63-4.18,1.74-10.31,3.64-14.12,1.1-2.06-1.91-2.4-5.45-4.78-7.14-4.6-3.07-11.8-.47-14.86-6.23-.59-.54-1.11.16-1.36.75-3.08,9.45,9.16,11.65,11.97,17.65,2.13,7.82-1.14,7.42-8.88,5.56-3.8-.56.33,1.54-.69,3.91-1.41,4.9-5.63,9.74-5.07,15.54-.61,24.99,7.41,47.57,5.56,72.14.01,1.69,1.02,2.3,2.46,2.04,11.31-1.68,23.51-1.13,34.55-2.69,16.42-4.25,6.26-7.99,31.37-9.42,43.26-6.15,39.18,14.06,39.89-24.93.79-15.34,7.74-32.29,2.35-47.57-1.49-2.39-4.82.4-5.16-1.99-.19-1.14-.17-2.67-.07-3.79.41-3.47,6.51-3.28,8.03-7.36,1.43-4.28-5.92-.96-7.85-.95-2.82.53-3.41,3.57-5.4,5.16-1.99,1.64-4.84-.05-7.16-.07-3.92.09-10.56,2.25-13.49.96-3.6-3.19,4.49-3.18,6.21-3.64,3.77-.61-2.24-.78-3.76-.67-5.59.17-13.01.65-13.3-3.25.21-4.5,7.08-2.78,9.9-3.23,1.82-.66.51-3.75,1.8-5.12,2.01-3.71,7.03,1.06,9.16-2.07,1.57-4.72-7.16,1.04-9.92-3.16-5.95-5.9,1.42-14.87-4.68-18.97-4.26-1.91-1.3-4.13,1.71-4.6,5.28-1.52,14.46.56,17.01-5.13.45-1.98-.99-1.53-2.91-.79-2.75,1.11-4.99,2.03-4.84-1.66-.22-6.56,6.1-9.37,5.9-15.58-.32-3.4-6.02-.04-6.93-2.91-.73-5.25,3.13-4.66,6.2-5.86,1.2-1.06,1.27-4,2.71-4.68,5.09-1.71,20.2,5.78,22.67-4.27l.1-.16ZM242.63,107.06c-1.44-1.19-3.69-.45-5.04.7-1.94,1.49-2.04,4.48-.26,6.18,3.6,2.13,7.16-4.5,5.4-6.77l-.1-.1ZM250.67,122.26c-5.32-1.19-21.45,3.61-11.04,9.76,10.24,5.92,11.19-.19,11.15-9.62l-.1-.14ZM265.43,167.17c-11.03-2-6.88,7.8-8.76,16.11-.1.5-.54,1.43-.02,1.55,1.71-.16,11.9-2,15.47-2.49.72.02.41,1.41.45,2.06-.66,7.51,7.04,7.21,12.7,5.18,1.72-.64,6.83-4.79,3.25-5.9-1.52-.42-3.95-.03-4.76,1.47-.22.38-.33.71-.63.92-.41.31-1.25.32-1.84.2-3.96-.63-2.05-6.41-2.6-10.45-.12-.62-.16-1.57-.87-1.61-1.24.13-9.1,2.91-10.37,3.09-.57-.21-.35-1.32-.56-2.1-.23-1.77-.58-4.44-.81-6.16-.15-1.01-.13-1.58-.52-1.82l-.13-.07ZM242.52,174.09c-7.4,3.51-8-1.19-13.96-4.01-1.1-.39-.87.56-.81,1.63.41,9.74,6.35,6.98,14.21,7.82,1.26.14.57-1.39.74-2.73-.06-1.24.12-2.16-.1-2.7h-.08ZM209.97,183.69c-2.52,20.98,15.59,3.85.09-.07l-.09.07ZM248.17,184.95c-1.46.61-10.06,5.37-14.76,7.82-1.43.62-2.17,1.51-3.58,1.59-1.48.43-9.86-4.59-10.24-.86.22,1.92,3.34,1.84,4.71,2.99,1.3,1.18,1.85,3.57,4.01,3.38,2.73-.06,4.29-2.75,6.1-1.96,2.92,1.64,8.45,5.39,12.51,5.08.72-.06,1.33-.2,1.32-.95-.03-2.49.08-13.1-.04-17.07l-.03-.02ZM264.53,187.71c-1.46-.06-6.39-.02-6.76-.02-.1.08-.06.26-.07.37,0,1.2,0,3.23.01,4.48,0,.44-.03.59.15.7,1.22.92,5.97-3.39,6.68-5.48v-.06ZM391.61,191.65c2.02-3.42-6.95-5.05-8.26-3.92-.05,1.72,0,4.47-.01,6.28,0,.52-.06.54.29.51,2.12-.47,6.09-1.8,7.91-2.77l.08-.1ZM258.93,212.14c-5.03-3.53-2.76,16.13,5.47,10.08,1.3-1.36-1.16-3.26-2.78-4.47-.84-.66-1.3-.76-1.75-2.05-.46-1.16-.39-2.53-.84-3.45l-.1-.1ZM284.58,215.09c-2.19-.09-4.73.82-6.96.65-2.42,0-4.73-.52-7.56-1.69-.44-.15-1-.4-1.25.01-.23,1.12-.06,3.02-.24,4.37-.08,2.54-.66,5.22.47,7.43,3.32,5.54,23.65,8.01,20.74-3.23-1-2.62-4.37-1.65-4.96-4.37-.3-1.02.13-2.09-.12-3.1l-.11-.09ZM241.42,223.3c3.93,2.64,6.6-5.12,5.54-7.89-.26-.67-.67-.28-1.21.17-1.58,1.43-3.16,3.77-4.06,5.65-.46.97-.62,1.73-.36,1.98l.1.1ZM377.71,216.38c-.47-.39-4.04-1.71-4.79-1.38-.31.14-.39.52-.42,1.04,0,2.11-.42,4.21-1.88,5.72-.72.79-1.14.96-2.24,1.42-2.27.99-5.03,2.19-7.39,3.21-.91.39-1.72.75-2.35,1.02-.78.36-1.28.46-1.12.79,4.34,4.98,7.61.5,11.27-1.8,2.02-.8,4.74.73,6.76.99.56.05.92.08,1.13-.4.41-1.6,1.47-8.92,1.1-10.52l-.07-.08ZM398.15,234.25c-6.26.89-10.29-3.53-15.65-5.48-1.01-.42-.44,1.1-.59,2.47.05,2.33-.1,4.96.05,7,.57.7,15.04.04,16.3-3.94l-.1-.05ZM294.5,230.11c-.66.31-3.73,1.8-4.98,2.41-2.19,1.1-4.4,2.07-4.55,2.26.31.65,1.84,1.74,2.74,1.9,3.13.72,6.51-.94,9.52-1.3.1-.11-.19-.39-.39-.72-.78-1.18-1.72-3.53-2.32-4.54l-.03-.02ZM245.17,250.22c.61-1.93.43-5.45.57-7.91-.06-2.29-.69-4.29-2.59-5.12-3.53-1.09-8.59-.64-12.17-.53-.48.08-.67.28-.71.86-.24,1.85,1.21,5.47-1.07,6.4-1.87.65-6.45,1.29-7.02,3.46-.35,2.22,3.53,3.21,5.23,2.97,2.17-.32,2.21-3.01,4.2-3.76,5.19-1.93,8.43,5.41,13.42,3.76l.14-.13ZM368.33,246.4c-3.73-1.56-14.31.57-11.97,6.18.5,1.3,1.51,2.59,2.81,3.04,4.65,1.68,11.84-5.84,9.24-9.13l-.08-.09ZM391.26,261.51c-2.89-2.54-10.21,1.54-8,6.32.18.18.43.23.73.18,2.37-.76,4.11-.62,5.77-.07,1.58.48,3.19,1.3,5.27,1.61.57-.02.55-.32.77-.75.18-1.25-.55-1.96-1.71-2.27-.94-.29-1.97-.93-2.21-2.18-.23-.82-.15-2.06-.52-2.73l-.1-.11ZM246.77,276.27c-.47-7.04-3.61-15.38-11.62-12.36-1.69.71.14,3.13.82,4.28,1.77,2.65,8.66,9.52,10.77,8.22l.03-.14ZM208.64,275.07c.5-.53,2.97.7,5.6,1.1,1.77.29,3.76-.08,5.04-1.38,2.39-2.43,1.43-7.52-1.49-8.79-1.53-.21-5.32,2.23-8.64,3.71-1.19.62-2.61.89-3.78,1.25-.12.08-.19.2-.23.37.19,3.12-.62,7.29-.75,10.24.03.58,1.01,1.12,1.65,1.01,2.01-.54,2.1-6.42,2.53-7.45l.06-.06ZM414.91,285.84c2.94-4.54-6.84-12.13-8.37-12.11-.44.32-.89,1.43-.22,1.92.67.83,2.81.83,3.05,1.93.28,2.39-1.58,5.3-1.5,7.87.03.48.11.61.75.55,1.73-.06,4.61.13,6.2-.07l.09-.1ZM405.26,288.63c2.19-3.59-5.1-7.5-7.83-6.85-.86.31-1.16,1.52-1.2,2.34-.28,3.48,7.82,5.13,8.95,4.59l.07-.08Z"/>
        <path class="st1" d="M290.94,138.86c-.11.13-.03.31.2.52.63.57,2.08,1.05,2.44,1.74.9,2.47-3.53,1.48-5.12,1.6-2.69-.01-5.49-.52-7.83,1.16-1.69,1.21-2.46,1.5-4.27.76-3.9-1.28-11.97-4.8-16.06-5.34-1.13-.05-1.51-.7-1.14-1.91,2.8-11.1,13.62-14.92,24.43-11.94,4.72,1.24,9.31,6.92,14.38,7.22,3.2-.07,8.98-1.88,12.51-3.13.32-.1.92-.27,1.09.04.21.36-.04,1.11-.24,1.57-3,7.4-13.17,7.35-20.31,7.65l-.08.07Z"/>
        <path class="st1" d="M376.26,197.11c-.32.46-.96.62-1.51.8-6.18,1.83-11.85,2.09-18.15.63-.89-.88,1.63-2.77-.81-2.69-2.96-.05-7.49-.07-8.03-2.72-.23-1,.8-1.43,1.68-1.46,10.03-.94,22.99-9.96,26.64,2.64.24.86.53,1.75.29,2.62l-.1.19Z"/>
        <path class="st1" d="M239.96,296.86c-1.94.32-6.38.63-8.24.85-.39-1.55-1.05-5.81-1.28-7.55,4.58-.54,10.42,1.22,9.55,6.58l-.03.12Z"/>
        <path class="st1" d="M390.26,295.65c2.69,3.42-5.48,8.09-6.83,3.62-1.05-3.3,4.66-4.67,6.72-3.73l.11.11Z"/>
      </g>
      <g>
        <path class="st1" d="M376.83,197.38c2.36-2.04,3.6-5.8,1.91-8.85-1.7-4.67-10.02-3.1-12.49-3.56-1.51-1.78,1-5.89-3.53-4.78-11.13,2.11-22.01-4.27-12.7-6.66,2.64-.68,5.35-.82,7.99-.9,3.03-.11.81-1.61-.67-2.15-1.02-.58-3.43-1.3-2.52-2.8,1.09-1.36,4.83,0,7.38.36,4.11.59,8.28-1.15,12.81-1.08,1.35.3,4.16-.71,2.23-2.21-1.38-.61-3.16-.6-4.67-1.01-2.25-.93-24.94-2.18-19.09-7.29.87-.36,2.24-.42,2.33-1.57.16-1.48-3.21-2.5-3.29-3.73,3.01-.65,11.98,1,14.91.87.66-.02.89-.34.24-.81-3.41-2-.49-6.52,1.46-8.6,6.14-4.88-6.58-6.64,9.52-9.15,2.56,1.25,5.04,4.06,7.56,5.6.83.64,2.08.89,1.82,1.76-.77.73-3.01,1.67-2.31,2.86.5,1.15,1.33,1.19,2.3,1.47,5.69,1.58,25.12,6.89,27.8,7.67,1.26.78,2.07,3.69-.27,3.77-5.36,1.34-10.87,1.63-16.16,1.65-.46.41.06,1.69.14,2.52-.08,1.89-4.78.4-5.76,1.22-1.1,1.2.21,3.92,1.48,4.69,2.29,1.12,7.97,3.34,11.29,4.25,3.87.79,9.08-1.34,11.37,3.38,2.15,2.34,6.32.16,8.94,1.62.99,1.12.61,3,.1,4.2-1.32,2.45-4.09,1.2-6.56,2.48-1.77.72-2.38,3.09-4.15,3.67-3.51.95-9.55-1.2-12.1,2.53,2.17,2.42,7.48,2.22,9.6,5.39,3.83,4.52-3.76,2.67-6.9,4.5-1.13.65-1.34,2-1.9,3.07-.97,2.11-4.34,1.57-6.16,2.38-1.86.93,1.1.98,1.88.96,4.76.12,7.5,4.02,11.93,4.33,1.6.18,3.45.14,4.89.83,4.51,2.83-2.32,6.61-5.26,7.82-1.95.88-4.38,1.66-6.29,2.09-.81.2-1.24.43-1.15.92,2.29,4.92,10.91,9.58,7.79,15.55-1.43,1.21-5.08,4.63-1.57,5.65,19.52,2.36,31.16,8.75,4.18,13.39-9.16,1.79-21.65-6.09-28.56-1.17-1.23.86-.8,1.5.45,1.65,8.55.88,17.63.21,25.99,2.14,5.41,1.65,35.27,5.46,16.5,9.92-2.27,1.83,2.63,6.19,2.86,8.87-.25.86-1.47,1.36-2.38,1.71-5.71,1.63-6.22,10.78-12.7,11.32-.64.15-.7.54-.58,1.06.26,1.38,1.76,4.35.56,5.61-2.85,1.07-7.21.65-10.25,1.52-3.21.85-4.22,6.7-9.09,5.81-3.97.03.71-6.13.14-7.88-.24-.67-1.07-.56-1.71-.65-5.05.42-12.09-5.52-16.5-3.17-2.54,10.98-1.96,22.9-1.82,34.13.63,8.97-1.48,38.52,5.8,43.12,3.56.71,15.9,2.25,21.99,2.47,4.71.14,17.47-2.19,24.95-1.8,3.05-.09,7.45,1.58,5.18,4.68-4.84,2.6-52.74,30.63-69.72,40.29-.79.26-1.85.37-2.83.52-61.85,8.52-149.19,7.63-205.33-21.22-1.78-1.71-.58-4.22.88-5.79,10.53-12.29,37.61-16.73,51.98-15.29,7.38.96,15.93,3.3,23.35,3.15,3.15-.2,5.91-.32,7.69-2.33,2.02-3.81,4.73-27.62,4.44-34.15-.29-4.96-5.31-8.75-5.2-13.96-.1-3.78,2.83-6.32,4.36-9.44,2.85-7.06,2.92-17.03,2.39-24.77-1.36-13.29-4.13-3.54-10.46-6.77-.7-.76-1.56-1.78-2.64-1.9-.7-.1-1.47.17-1.86.79-.96,1.82-4.16,5.88-7.53,5.67-5.67.28-15.2-11.26-18.06-1.48-.91,1.6-2.59,1.41-4.26.87-3.3-.7-6.91-4.43-9.98-1.63-3.66,2.81-7.93,5.85-10.15-.52-1.73-3.88,2.07-3.76,4.19-5.49,2.34-4.46-.47-9.8,7.14-7.17,14,2.41-4.69-16.91,13.58-18.09,3.36-.4,6.24,1.47,8.87-.97,5.67-6.28-4.33-1.02-6.96-2.44-7.43-5-5.32-3.09-14.16-2.18-5.96.56,3.58,5.24,3.31,7.75.13,1.29-1,1.95-2.94,2.47-2.15.55-4.12,1.35-5.96,1.37-2.29.03-4.89-3.15-7.06-1.72-.59.59.07,1.74,1.1,2.35,1.87,1.13,4.36,1.72,5.45,3.83,1.25,1.82.36,5.13-1.29,5.26-2.23.05-3.96-2.56-5.92-3.58-3.21-3.4-17.69,1.12-9.4-5.66,1.48-1.15,3.66-2.45,4.78-3.76,1.77-1.79,0-4-2.05-2.81-2.55.95-3.68,5.48-6.68,4.95-1.57-.47-2.98-2.52-5.14-2.69-.88-.14-1.63-.59-1.03-1.55,2.23-4.22,4.92-7.75,8.64-10.69.55-.73-.3-1.06-1.14-1.53-10.32-4.87,2.27-11.34,8.04-12.52,10.64-2.67,21.99-.64,32.5-.84,5.37.08,10.63-3.18,16.07-2.9,4.97-.57,10.21,1.53,14.95.85,1.12-2.3-2.89-2.79-4.17-3.79-1.52-1.08-1.26-3.57-3.62-4.63-1.65-.77-5.54-1.31-4.58,1.61.67,2.03.67,2.16-1.41,2.19-8.05.56-27.17,1.91-30.63,2.14-7.12-2.63-14.65-4.85-22.36-5.22-1.09-.44,1.68-3.2.64-3.61-3.65-.38-9.33-.41-10.62-3.57-.98-2.32,1-3.35,3.08-2.94,6.1.52,10.83-4.26,15.1-4.61,6.17-.36,16.71,4.49,19.08-4.2.71-3.74-5.23-4.75-6.05-8.07-.76-4.5,5.41-7.52,8.32-9.62,1.09-1.28-1.68-2.47-1.32-3.8,1.32-2.81,11.28-5.14,7.94-8.78-1.73-1.45-5.52-1.19-8.01-1.16-.61-.02-1.24-.08-.84-.79.11-.19.27-.4.44-.62,3.01-3.08-11.52-.06-12.15-1.46-.32-.17-.72-.95-.23-1.42,1.29-1.26,3.48-2.72,1.48-4.57-4.28-4.14-12.17.55-17.27-1.04-2.38-1.27,1.7-2.63,3.07-3.49,7.3-8.97,14.32-4.39,23.16-4.29,2.81.15,5.05-3.21,7.24-4.13,2.38-.05,16.72.03,19.77-.04,1.09-.24.2-1.16-1.16-1.81-1.76-.95-5.95-.42-7.05-1.01-.69-.54-.49-1.54-.58-2.37.04-3.03-1.15-5.54-2.44-8.34-.55-2.56-3.61-3.58-4.09-5.71.39-2.94,8.56-4.67,7.1-6.82-.86-1.1-4.37-.8-5.09-1.68-.86-.8.76-3.1-.07-3.63-2.27-.23-17.44-1.06-21.46-1.32-3.35.05,5.16-4.26,1-4.25-5.43-.75-18.32-4.47-15.08-10.54,3.52-5.63,10.85-1.48,14.36-.57,1.96-.27,2.68-3.1,4.03-4.41,4.61-4.94,11.86-.32,17.04-1.18,5.08-1.69,14.55-5.46,18.43-7.08,2.78-1.04,5.89-4.5,4.67-7.37-1.39-3.91-8.94,1.02-9.48-3.25,2.29-4.89,10.76,1.58,12.21-4.28-2.8-3.64-16.84,2.54-21.62,1.79-7.04.53-11.65-5.81-18.56-5.66-2.05.46-3.37-1.69-2.62-3.45,1.74-1.94,10.52-2.43,15.85-3.78,2.58-.36,3.48-.9,5.87-.13,1.81.5,3.53,2.11,5.46,1.96,1.45-.12,2.22-1.57,3-2.73,2.45-6.17,12.95-3.18,16.78-3.78.7-.09.84-.38.84-1.17-.22-3.1.03-7.51,3.06-9.5,3.25-2.57,7.31-.56,9.68-3.17,5.45-8.66,11.27-1.11,17.99.78,1.12,1.43-1.01,3.49-1.44,4.95-1.79,4.8,5.07,2.82,7.02,4.82.35,1.65-6.91,2.3-5.01,3.55.51.1,2.57.86,1.72,1.49-3.15,2.23,6.36-.96,5.2,3.05-.22,3.52-4.17,2.71-6.51,3.34-1.49.37-2.16,1.6-3.88,2.48-1.65,1.05-3.73.28-5.43.98-.74.7.37,2.63,1.37,2.76,5.48.39,27.07-4.84,34.28-3.42-1.72,4.53-12.55,5.35-16.4,5.42,4.04,1,14.13.93,17.07,2.26,3.53,6.39-1.66,5.54-6.37,4.97-2.89.11-4.71,2.91-7.81,3.44-8.09,1.53-18,.85-26.44,1.41-3.03-.29-3.89,5.13-1.58,6.2,1.74.56,4.89-.8,7.58-.53,4.2.31,8.33,2.05,12.48,2.52,8.21,1.3,17.74-1.21,25.61.75-1.22,3.49-18.64,2.63-21.31,5.46-.14,5.31,20.68,3.27,20.79,8.05-1.02,2.7-5.59,1.74-8.08,2.22-2.73.22-5.08-.06-7.53.96-1.69.78-4.08,2.06-5.26,1.77-1.46-.44-1.99-2.27-3.16-3.15-.76-.69-1.55-.98-2.16-.14-1.71,2.7-.87,6.51-1.54,9.62-2.18,2.93-14.72-7.41-19.59-6.46-6.2-.39-4.21,24.61-3.6,26.27.61,1.63,2.48,1.36,4.03,2.26,4.1,2.56,6.4,4.04,11.22,3.13,2.59-.06,4.23,2.68,6.4,3.46,4.38.48,9.8-.57,14.25-1.6,1.72-.46,4.1-2.82,5.51-1.18,1.14,2.42,1.7,8.55,2.37,10.66.32,1.07,1.29.86,2.27.66,5.33-2.45,7.11,3.43,12.09,4.08,15.85,1.68-11.73,8.02-15.52,6.15-.97.05-.89.77-.78,1.62.67,2.72.21,7.47,1.37,9.89,2.11,2.57,7.59,2.45,7.5,6.82.03,2.86-1.07,7.52-.36,11.05,1.25,3.92-9.16-1.91-10.13-2.11-1.63-1.01-4.01-5.08-5.45-1.64-.32,3.51,4.28,6.84,6.84,8.77,2.37,1.33,6.34.28,9.32.81,3.34.51,6.7,3.05,9.54,3.32,3.34.52,8.39-1.78,10.67,1.52,1.89,4.46-2.21,4.82-5.37,6.08-4.27,2.02-3.56,4.35-3.05,8.52.12,2.37-1.76,5.7-.29,7.13,4.07,3-.4,4.92-3.59,3.7-1.24.25.11,2.39-.19,3.51-.08,2-.9,3.79-.2,5.31,1.04,1.66,3.08,4.92-.73,4.32-3.22-.59-5.24-3.75-7.93-5.12-1.34-.32-3.82,1-6.06.69-2.07-.46-2.85.65-2.48,2.91.52,10.86,15.54-5.88,16.42,11.83,1.64,8.02,16.42-3.36,17.73,7.17.35,9.39-29.43.43-31.92,5-.04,1.36,3.15,3.36,4.64,3.27,2.21-.66,6.77-2.84,9.17.51.93,1.15,2.21,2.58.51,2.63-3.38,0-14.91,0-17.7,0-2.54.23-2-3.74-3.63-4.63-4.18,1.74-10.31,3.64-14.12,1.1-2.06-1.91-2.4-5.45-4.78-7.14-4.6-3.07-11.8-.47-14.86-6.23-.59-.54-1.11.16-1.36.75-3.08,9.45,9.16,11.65,11.97,17.65,2.13,7.82-1.14,7.42-8.88,5.56-3.8-.56.33,1.54-.69,3.91-1.41,4.9-5.63,9.74-5.07,15.54-.61,24.99,7.41,47.57,5.56,72.14.01,1.69,1.02,2.3,2.46,2.04,11.31-1.68,23.51-1.13,34.55-2.69,16.42-4.25,6.26-7.99,31.37-9.42,43.26-6.15,39.18,14.06,39.89-24.93.79-15.34,7.74-32.29,2.35-47.57-1.49-2.39-4.82.4-5.16-1.99-.19-1.14-.17-2.67-.07-3.79.41-3.47,6.51-3.28,8.03-7.36,1.43-4.28-5.92-.96-7.85-.95-2.82.53-3.41,3.57-5.4,5.16-1.99,1.64-4.84-.05-7.16-.07-3.92.09-10.56,2.25-13.49.96-3.6-3.19,4.49-3.18,6.21-3.64,3.77-.61-2.24-.78-3.76-.67-5.59.17-13.01.65-13.3-3.25.21-4.5,7.08-2.78,9.9-3.23,1.82-.66.51-3.75,1.8-5.12,2.01-3.71,7.03,1.06,9.16-2.07,1.57-4.72-7.16,1.04-9.92-3.16-5.95-5.9,1.42-14.87-4.68-18.97-4.26-1.91-1.3-4.13,1.71-4.6,5.28-1.52,14.46.56,17.01-5.13.45-1.98-.99-1.53-2.91-.79-2.75,1.11-4.99,2.03-4.84-1.66-.22-6.56,6.1-9.37,5.9-15.58-.32-3.4-6.02-.04-6.93-2.91-.73-5.25,3.13-4.66,6.2-5.86,1.2-1.06,1.27-4,2.71-4.68,5.09-1.71,20.2,5.78,22.67-4.27l.1-.16ZM242.63,107.06c-1.44-1.19-3.69-.45-5.04.7-1.94,1.49-2.04,4.48-.26,6.18,3.6,2.13,7.16-4.5,5.4-6.77l-.1-.1ZM250.67,122.26c-5.32-1.19-21.45,3.61-11.04,9.76,10.24,5.92,11.19-.19,11.15-9.62l-.1-.14ZM265.43,167.17c-11.03-2-6.88,7.8-8.76,16.11-.1.5-.54,1.43-.02,1.55,1.71-.16,11.9-2,15.47-2.49.72.02.41,1.41.45,2.06-.66,7.51,7.04,7.21,12.7,5.18,1.72-.64,6.83-4.79,3.25-5.9-1.52-.42-3.95-.03-4.76,1.47-.22.38-.33.71-.63.92-.41.31-1.25.32-1.84.2-3.96-.63-2.05-6.41-2.6-10.45-.12-.62-.16-1.57-.87-1.61-1.24.13-9.1,2.91-10.37,3.09-.57-.21-.35-1.32-.56-2.1-.23-1.77-.58-4.44-.81-6.16-.15-1.01-.13-1.58-.52-1.82l-.13-.07ZM242.52,174.09c-7.4,3.51-8-1.19-13.96-4.01-1.1-.39-.87.56-.81,1.63.41,9.74,6.35,6.98,14.21,7.82,1.26.14.57-1.39.74-2.73-.06-1.24.12-2.16-.1-2.7h-.08ZM209.97,183.69c-2.52,20.98,15.59,3.85.09-.07l-.09.07ZM248.17,184.95c-1.46.61-10.06,5.37-14.76,7.82-1.43.62-2.17,1.51-3.58,1.59-1.48.43-9.86-4.59-10.24-.86.22,1.92,3.34,1.84,4.71,2.99,1.3,1.18,1.85,3.57,4.01,3.38,2.73-.06,4.29-2.75,6.1-1.96,2.92,1.64,8.45,5.39,12.51,5.08.72-.06,1.33-.2,1.32-.95-.03-2.49.08-13.1-.04-17.07l-.03-.02ZM264.53,187.71c-1.46-.06-6.39-.02-6.76-.02-.1.08-.06.26-.07.37,0,1.2,0,3.23.01,4.48,0,.44-.03.59.15.7,1.22.92,5.97-3.39,6.68-5.48v-.06ZM391.61,191.65c2.02-3.42-6.95-5.05-8.26-3.92-.05,1.72,0,4.47-.01,6.28,0,.52-.06.54.29.51,2.12-.47,6.09-1.8,7.91-2.77l.08-.1ZM258.93,212.14c-5.03-3.53-2.76,16.13,5.47,10.08,1.3-1.36-1.16-3.26-2.78-4.47-.84-.66-1.3-.76-1.75-2.05-.46-1.16-.39-2.53-.84-3.45l-.1-.1ZM284.58,215.09c-2.19-.09-4.73.82-6.96.65-2.42,0-4.73-.52-7.56-1.69-.44-.15-1-.4-1.25.01-.23,1.12-.06,3.02-.24,4.37-.08,2.54-.66,5.22.47,7.43,3.32,5.54,23.65,8.01,20.74-3.23-1-2.62-4.37-1.65-4.96-4.37-.3-1.02.13-2.09-.12-3.1l-.11-.09ZM241.42,223.3c3.93,2.64,6.6-5.12,5.54-7.89-.26-.67-.67-.28-1.21.17-1.58,1.43-3.16,3.77-4.06,5.65-.46.97-.62,1.73-.36,1.98l.1.1ZM377.71,216.38c-.47-.39-4.04-1.71-4.79-1.38-.31.14-.39.52-.42,1.04,0,2.11-.42,4.21-1.88,5.72-.72.79-1.14.96-2.24,1.42-2.27.99-5.03,2.19-7.39,3.21-.91.39-1.72.75-2.35,1.02-.78.36-1.28.46-1.12.79,4.34,4.98,7.61.5,11.27-1.8,2.02-.8,4.74.73,6.76.99.56.05.92.08,1.13-.4.41-1.6,1.47-8.92,1.1-10.52l-.07-.08ZM398.15,234.25c-6.26.89-10.29-3.53-15.65-5.48-1.01-.42-.44,1.1-.59,2.47.05,2.33-.1,4.96.05,7,.57.7,15.04.04,16.3-3.94l-.1-.05ZM294.5,230.11c-.66.31-3.73,1.8-4.98,2.41-2.19,1.1-4.4,2.07-4.55,2.26.31.65,1.84,1.74,2.74,1.9,3.13.72,6.51-.94,9.52-1.3.1-.11-.19-.39-.39-.72-.78-1.18-1.72-3.53-2.32-4.54l-.03-.02ZM245.17,250.22c.61-1.93.43-5.45.57-7.91-.06-2.29-.69-4.29-2.59-5.12-3.53-1.09-8.59-.64-12.17-.53-.48.08-.67.28-.71.86-.24,1.85,1.21,5.47-1.07,6.4-1.87.65-6.45,1.29-7.02,3.46-.35,2.22,3.53,3.21,5.23,2.97,2.17-.32,2.21-3.01,4.2-3.76,5.19-1.93,8.43,5.41,13.42,3.76l.14-.13ZM368.33,246.4c-3.73-1.56-14.31.57-11.97,6.18.5,1.3,1.51,2.59,2.81,3.04,4.65,1.68,11.84-5.84,9.24-9.13l-.08-.09ZM391.26,261.51c-2.89-2.54-10.21,1.54-8,6.32.18.18.43.23.73.18,2.37-.76,4.11-.62,5.77-.07,1.58.48,3.19,1.3,5.27,1.61.57-.02.55-.32.77-.75.18-1.25-.55-1.96-1.71-2.27-.94-.29-1.97-.93-2.21-2.18-.23-.82-.15-2.06-.52-2.73l-.1-.11ZM246.77,276.27c-.47-7.04-3.61-15.38-11.62-12.36-1.69.71.14,3.13.82,4.28,1.77,2.65,8.66,9.52,10.77,8.22l.03-.14ZM208.64,275.07c.5-.53,2.97.7,5.6,1.1,1.77.29,3.76-.08,5.04-1.38,2.39-2.43,1.43-7.52-1.49-8.79-1.53-.21-5.32,2.23-8.64,3.71-1.19.62-2.61.89-3.78,1.25-.12.08-.19.2-.23.37.19,3.12-.62,7.29-.75,10.24.03.58,1.01,1.12,1.65,1.01,2.01-.54,2.1-6.42,2.53-7.45l.06-.06ZM414.91,285.84c2.94-4.54-6.84-12.13-8.37-12.11-.44.32-.89,1.43-.22,1.92.67.83,2.81.83,3.05,1.93.28,2.39-1.58,5.3-1.5,7.87.03.48.11.61.75.55,1.73-.06,4.61.13,6.2-.07l.09-.1ZM405.26,288.63c2.19-3.59-5.1-7.5-7.83-6.85-.86.31-1.16,1.52-1.2,2.34-.28,3.48,7.82,5.13,8.95,4.59l.07-.08Z"/>
        <path class="st1" d="M290.94,138.86c-.11.13-.03.31.2.52.63.57,2.08,1.05,2.44,1.74.9,2.47-3.53,1.48-5.12,1.6-2.69-.01-5.49-.52-7.83,1.16-1.69,1.21-2.46,1.5-4.27.76-3.9-1.28-11.97-4.8-16.06-5.34-1.13-.05-1.51-.7-1.14-1.91,2.8-11.1,13.62-14.92,24.43-11.94,4.72,1.24,9.31,6.92,14.38,7.22,3.2-.07,8.98-1.88,12.51-3.13.32-.1.92-.27,1.09.04.21.36-.04,1.11-.24,1.57-3,7.4-13.17,7.35-20.31,7.65l-.08.07Z"/>
        <path class="st1" d="M376.26,197.11c-.32.46-.96.62-1.51.8-6.18,1.83-11.85,2.09-18.15.63-.89-.88,1.63-2.77-.81-2.69-2.96-.05-7.49-.07-8.03-2.72-.23-1,.8-1.43,1.68-1.46,10.03-.94,22.99-9.96,26.64,2.64.24.86.53,1.75.29,2.62l-.1.19Z"/>
        <path class="st1" d="M239.96,296.86c-1.94.32-6.38.63-8.24.85-.39-1.55-1.05-5.81-1.28-7.55,4.58-.54,10.42,1.22,9.55,6.58l-.03.12Z"/>
        <path class="st1" d="M390.26,295.65c2.69,3.42-5.48,8.09-6.83,3.62-1.05-3.3,4.66-4.67,6.72-3.73l.11.11Z"/>
      </g>
    </g>
    <g>
      <g>
        <path class="st1" d="M376.83,197.38c2.36-2.04,3.6-5.8,1.91-8.85-1.7-4.67-10.02-3.1-12.49-3.56-1.51-1.78,1-5.89-3.53-4.78-11.13,2.11-22.01-4.27-12.7-6.66,2.64-.68,5.35-.82,7.99-.9,3.03-.11.81-1.61-.67-2.15-1.02-.58-3.43-1.3-2.52-2.8,1.09-1.36,4.83,0,7.38.36,4.11.59,8.28-1.15,12.81-1.08,1.35.3,4.16-.71,2.23-2.21-1.38-.61-3.16-.6-4.67-1.01-2.25-.93-24.94-2.18-19.09-7.29.87-.36,2.24-.42,2.33-1.57.16-1.48-3.21-2.5-3.29-3.73,3.01-.65,11.98,1,14.91.87.66-.02.89-.34.24-.81-3.41-2-.49-6.52,1.46-8.6,6.14-4.88-6.58-6.64,9.52-9.15,2.56,1.25,5.04,4.06,7.56,5.6.83.64,2.08.89,1.82,1.76-.77.73-3.01,1.67-2.31,2.86.5,1.15,1.33,1.19,2.3,1.47,5.69,1.58,25.12,6.89,27.8,7.67,1.26.78,2.07,3.69-.27,3.77-5.36,1.34-10.87,1.63-16.16,1.65-.46.41.06,1.69.14,2.52-.08,1.89-4.78.4-5.76,1.22-1.1,1.2.21,3.92,1.48,4.69,2.29,1.12,7.97,3.34,11.29,4.25,3.87.79,9.08-1.34,11.37,3.38,2.15,2.34,6.32.16,8.94,1.62.99,1.12.61,3,.1,4.2-1.32,2.45-4.09,1.2-6.56,2.48-1.77.72-2.38,3.09-4.15,3.67-3.51.95-9.55-1.2-12.1,2.53,2.17,2.42,7.48,2.22,9.6,5.39,3.83,4.52-3.76,2.67-6.9,4.5-1.13.65-1.34,2-1.9,3.07-.97,2.11-4.34,1.57-6.16,2.38-1.86.93,1.1.98,1.88.96,4.76.12,7.5,4.02,11.93,4.33,1.6.18,3.45.14,4.89.83,4.51,2.83-2.32,6.61-5.26,7.82-1.95.88-4.38,1.66-6.29,2.09-.81.2-1.24.43-1.15.92,2.29,4.92,10.91,9.58,7.79,15.55-1.43,1.21-5.08,4.63-1.57,5.65,19.52,2.36,31.16,8.75,4.18,13.39-9.16,1.79-21.65-6.09-28.56-1.17-1.23.86-.8,1.5.45,1.65,8.55.88,17.63.21,25.99,2.14,5.41,1.65,35.27,5.46,16.5,9.92-2.27,1.83,2.63,6.19,2.86,8.87-.25.86-1.47,1.36-2.38,1.71-5.71,1.63-6.22,10.78-12.7,11.32-.64.15-.7.54-.58,1.06.26,1.38,1.76,4.35.56,5.61-2.85,1.07-7.21.65-10.25,1.52-3.21.85-4.22,6.7-9.09,5.81-3.97.03.71-6.13.14-7.88-.24-.67-1.07-.56-1.71-.65-5.05.42-12.09-5.52-16.5-3.17-2.54,10.98-1.96,22.9-1.82,34.13.63,8.97-1.48,38.52,5.8,43.12,3.56.71,15.9,2.25,21.99,2.47,4.71.14,17.47-2.19,24.95-1.8,3.05-.09,7.45,1.58,5.18,4.68-4.84,2.6-52.74,30.63-69.72,40.29-.79.26-1.85.37-2.83.52-61.85,8.52-149.19,7.63-205.33-21.22-1.78-1.71-.58-4.22.88-5.79,10.53-12.29,37.61-16.73,51.98-15.29,7.38.96,15.93,3.3,23.35,3.15,3.15-.2,5.91-.32,7.69-2.33,2.02-3.81,4.73-27.62,4.44-34.15-.29-4.96-5.31-8.75-5.2-13.96-.1-3.78,2.83-6.32,4.36-9.44,2.85-7.06,2.92-17.03,2.39-24.77-1.36-13.29-4.13-3.54-10.46-6.77-.7-.76-1.56-1.78-2.64-1.9-.7-.1-1.47.17-1.86.79-.96,1.82-4.16,5.88-7.53,5.67-5.67.28-15.2-11.26-18.06-1.48-.91,1.6-2.59,1.41-4.26.87-3.3-.7-6.91-4.43-9.98-1.63-3.66,2.81-7.93,5.85-10.15-.52-1.73-3.88,2.07-3.76,4.19-5.49,2.34-4.46-.47-9.8,7.14-7.17,14,2.41-4.69-16.91,13.58-18.09,3.36-.4,6.24,1.47,8.87-.97,5.67-6.28-4.33-1.02-6.96-2.44-7.43-5-5.32-3.09-14.16-2.18-5.96.56,3.58,5.24,3.31,7.75.13,1.29-1,1.95-2.94,2.47-2.15.55-4.12,1.35-5.96,1.37-2.29.03-4.89-3.15-7.06-1.72-.59.59.07,1.74,1.1,2.35,1.87,1.13,4.36,1.72,5.45,3.83,1.25,1.82.36,5.13-1.29,5.26-2.23.05-3.96-2.56-5.92-3.58-3.21-3.4-17.69,1.12-9.4-5.66,1.48-1.15,3.66-2.45,4.78-3.76,1.77-1.79,0-4-2.05-2.81-2.55.95-3.68,5.48-6.68,4.95-1.57-.47-2.98-2.52-5.14-2.69-.88-.14-1.63-.59-1.03-1.55,2.23-4.22,4.92-7.75,8.64-10.69.55-.73-.3-1.06-1.14-1.53-10.32-4.87,2.27-11.34,8.04-12.52,10.64-2.67,21.99-.64,32.5-.84,5.37.08,10.63-3.18,16.07-2.9,4.97-.57,10.21,1.53,14.95.85,1.12-2.3-2.89-2.79-4.17-3.79-1.52-1.08-1.26-3.57-3.62-4.63-1.65-.77-5.54-1.31-4.58,1.61.67,2.03.67,2.16-1.41,2.19-8.05.56-27.17,1.91-30.63,2.14-7.12-2.63-14.65-4.85-22.36-5.22-1.09-.44,1.68-3.2.64-3.61-3.65-.38-9.33-.41-10.62-3.57-.98-2.32,1-3.35,3.08-2.94,6.1.52,10.83-4.26,15.1-4.61,6.17-.36,16.71,4.49,19.08-4.2.71-3.74-5.23-4.75-6.05-8.07-.76-4.5,5.41-7.52,8.32-9.62,1.09-1.28-1.68-2.47-1.32-3.8,1.32-2.81,11.28-5.14,7.94-8.78-1.73-1.45-5.52-1.19-8.01-1.16-.61-.02-1.24-.08-.84-.79.11-.19.27-.4.44-.62,3.01-3.08-11.52-.06-12.15-1.46-.32-.17-.72-.95-.23-1.42,1.29-1.26,3.48-2.72,1.48-4.57-4.28-4.14-12.17.55-17.27-1.04-2.38-1.27,1.7-2.63,3.07-3.49,7.3-8.97,14.32-4.39,23.16-4.29,2.81.15,5.05-3.21,7.24-4.13,2.38-.05,16.72.03,19.77-.04,1.09-.24.2-1.16-1.16-1.81-1.76-.95-5.95-.42-7.05-1.01-.69-.54-.49-1.54-.58-2.37.04-3.03-1.15-5.54-2.44-8.34-.55-2.56-3.61-3.58-4.09-5.71.39-2.94,8.56-4.67,7.1-6.82-.86-1.1-4.37-.8-5.09-1.68-.86-.8.76-3.1-.07-3.63-2.27-.23-17.44-1.06-21.46-1.32-3.35.05,5.16-4.26,1-4.25-5.43-.75-18.32-4.47-15.08-10.54,3.52-5.63,10.85-1.48,14.36-.57,1.96-.27,2.68-3.1,4.03-4.41,4.61-4.94,11.86-.32,17.04-1.18,5.08-1.69,14.55-5.46,18.43-7.08,2.78-1.04,5.89-4.5,4.67-7.37-1.39-3.91-8.94,1.02-9.48-3.25,2.29-4.89,10.76,1.58,12.21-4.28-2.8-3.64-16.84,2.54-21.62,1.79-7.04.53-11.65-5.81-18.56-5.66-2.05.46-3.37-1.69-2.62-3.45,1.74-1.94,10.52-2.43,15.85-3.78,2.58-.36,3.48-.9,5.87-.13,1.81.5,3.53,2.11,5.46,1.96,1.45-.12,2.22-1.57,3-2.73,2.45-6.17,12.95-3.18,16.78-3.78.7-.09.84-.38.84-1.17-.22-3.1.03-7.51,3.06-9.5,3.25-2.57,7.31-.56,9.68-3.17,5.45-8.66,11.27-1.11,17.99.78,1.12,1.43-1.01,3.49-1.44,4.95-1.79,4.8,5.07,2.82,7.02,4.82.35,1.65-6.91,2.3-5.01,3.55.51.1,2.57.86,1.72,1.49-3.15,2.23,6.36-.96,5.2,3.05-.22,3.52-4.17,2.71-6.51,3.34-1.49.37-2.16,1.6-3.88,2.48-1.65,1.05-3.73.28-5.43.98-.74.7.37,2.63,1.37,2.76,5.48.39,27.07-4.84,34.28-3.42-1.72,4.53-12.55,5.35-16.4,5.42,4.04,1,14.13.93,17.07,2.26,3.53,6.39-1.66,5.54-6.37,4.97-2.89.11-4.71,2.91-7.81,3.44-8.09,1.53-18,.85-26.44,1.41-3.03-.29-3.89,5.13-1.58,6.2,1.74.56,4.89-.8,7.58-.53,4.2.31,8.33,2.05,12.48,2.52,8.21,1.3,17.74-1.21,25.61.75-1.22,3.49-18.64,2.63-21.31,5.46-.14,5.31,20.68,3.27,20.79,8.05-1.02,2.7-5.59,1.74-8.08,2.22-2.73.22-5.08-.06-7.53.96-1.69.78-4.08,2.06-5.26,1.77-1.46-.44-1.99-2.27-3.16-3.15-.76-.69-1.55-.98-2.16-.14-1.71,2.7-.87,6.51-1.54,9.62-2.18,2.93-14.72-7.41-19.59-6.46-6.2-.39-4.21,24.61-3.6,26.27.61,1.63,2.48,1.36,4.03,2.26,4.1,2.56,6.4,4.04,11.22,3.13,2.59-.06,4.23,2.68,6.4,3.46,4.38.48,9.8-.57,14.25-1.6,1.72-.46,4.1-2.82,5.51-1.18,1.14,2.42,1.7,8.55,2.37,10.66.32,1.07,1.29.86,2.27.66,5.33-2.45,7.11,3.43,12.09,4.08,15.85,1.68-11.73,8.02-15.52,6.15-.97.05-.89.77-.78,1.62.67,2.72.21,7.47,1.37,9.89,2.11,2.57,7.59,2.45,7.5,6.82.03,2.86-1.07,7.52-.36,11.05,1.25,3.92-9.16-1.91-10.13-2.11-1.63-1.01-4.01-5.08-5.45-1.64-.32,3.51,4.28,6.84,6.84,8.77,2.37,1.33,6.34.28,9.32.81,3.34.51,6.7,3.05,9.54,3.32,3.34.52,8.39-1.78,10.67,1.52,1.89,4.46-2.21,4.82-5.37,6.08-4.27,2.02-3.56,4.35-3.05,8.52.12,2.37-1.76,5.7-.29,7.13,4.07,3-.4,4.92-3.59,3.7-1.24.25.11,2.39-.19,3.51-.08,2-.9,3.79-.2,5.31,1.04,1.66,3.08,4.92-.73,4.32-3.22-.59-5.24-3.75-7.93-5.12-1.34-.32-3.82,1-6.06.69-2.07-.46-2.85.65-2.48,2.91.52,10.86,15.54-5.88,16.42,11.83,1.64,8.02,16.42-3.36,17.73,7.17.35,9.39-29.43.43-31.92,5-.04,1.36,3.15,3.36,4.64,3.27,2.21-.66,6.77-2.84,9.17.51.93,1.15,2.21,2.58.51,2.63-3.38,0-14.91,0-17.7,0-2.54.23-2-3.74-3.63-4.63-4.18,1.74-10.31,3.64-14.12,1.1-2.06-1.91-2.4-5.45-4.78-7.14-4.6-3.07-11.8-.47-14.86-6.23-.59-.54-1.11.16-1.36.75-3.08,9.45,9.16,11.65,11.97,17.65,2.13,7.82-1.14,7.42-8.88,5.56-3.8-.56.33,1.54-.69,3.91-1.41,4.9-5.63,9.74-5.07,15.54-.61,24.99,7.41,47.57,5.56,72.14.01,1.69,1.02,2.3,2.46,2.04,11.31-1.68,23.51-1.13,34.55-2.69,16.42-4.25,6.26-7.99,31.37-9.42,43.26-6.15,39.18,14.06,39.89-24.93.79-15.34,7.74-32.29,2.35-47.57-1.49-2.39-4.82.4-5.16-1.99-.19-1.14-.17-2.67-.07-3.79.41-3.47,6.51-3.28,8.03-7.36,1.43-4.28-5.92-.96-7.85-.95-2.82.53-3.41,3.57-5.4,5.16-1.99,1.64-4.84-.05-7.16-.07-3.92.09-10.56,2.25-13.49.96-3.6-3.19,4.49-3.18,6.21-3.64,3.77-.61-2.24-.78-3.76-.67-5.59.17-13.01.65-13.3-3.25.21-4.5,7.08-2.78,9.9-3.23,1.82-.66.51-3.75,1.8-5.12,2.01-3.71,7.03,1.06,9.16-2.07,1.57-4.72-7.16,1.04-9.92-3.16-5.95-5.9,1.42-14.87-4.68-18.97-4.26-1.91-1.3-4.13,1.71-4.6,5.28-1.52,14.46.56,17.01-5.13.45-1.98-.99-1.53-2.91-.79-2.75,1.11-4.99,2.03-4.84-1.66-.22-6.56,6.1-9.37,5.9-15.58-.32-3.4-6.02-.04-6.93-2.91-.73-5.25,3.13-4.66,6.2-5.86,1.2-1.06,1.27-4,2.71-4.68,5.09-1.71,20.2,5.78,22.67-4.27l.1-.16ZM242.63,107.06c-1.44-1.19-3.69-.45-5.04.7-1.94,1.49-2.04,4.48-.26,6.18,3.6,2.13,7.16-4.5,5.4-6.77l-.1-.1ZM250.67,122.26c-5.32-1.19-21.45,3.61-11.04,9.76,10.24,5.92,11.19-.19,11.15-9.62l-.1-.14ZM265.43,167.17c-11.03-2-6.88,7.8-8.76,16.11-.1.5-.54,1.43-.02,1.55,1.71-.16,11.9-2,15.47-2.49.72.02.41,1.41.45,2.06-.66,7.51,7.04,7.21,12.7,5.18,1.72-.64,6.83-4.79,3.25-5.9-1.52-.42-3.95-.03-4.76,1.47-.22.38-.33.71-.63.92-.41.31-1.25.32-1.84.2-3.96-.63-2.05-6.41-2.6-10.45-.12-.62-.16-1.57-.87-1.61-1.24.13-9.1,2.91-10.37,3.09-.57-.21-.35-1.32-.56-2.1-.23-1.77-.58-4.44-.81-6.16-.15-1.01-.13-1.58-.52-1.82l-.13-.07ZM242.52,174.09c-7.4,3.51-8-1.19-13.96-4.01-1.1-.39-.87.56-.81,1.63.41,9.74,6.35,6.98,14.21,7.82,1.26.14.57-1.39.74-2.73-.06-1.24.12-2.16-.1-2.7h-.08ZM209.97,183.69c-2.52,20.98,15.59,3.85.09-.07l-.09.07ZM248.17,184.95c-1.46.61-10.06,5.37-14.76,7.82-1.43.62-2.17,1.51-3.58,1.59-1.48.43-9.86-4.59-10.24-.86.22,1.92,3.34,1.84,4.71,2.99,1.3,1.18,1.85,3.57,4.01,3.38,2.73-.06,4.29-2.75,6.1-1.96,2.92,1.64,8.45,5.39,12.51,5.08.72-.06,1.33-.2,1.32-.95-.03-2.49.08-13.1-.04-17.07l-.03-.02ZM264.53,187.71c-1.46-.06-6.39-.02-6.76-.02-.1.08-.06.26-.07.37,0,1.2,0,3.23.01,4.48,0,.44-.03.59.15.7,1.22.92,5.97-3.39,6.68-5.48v-.06ZM391.61,191.65c2.02-3.42-6.95-5.05-8.26-3.92-.05,1.72,0,4.47-.01,6.28,0,.52-.06.54.29.51,2.12-.47,6.09-1.8,7.91-2.77l.08-.1ZM258.93,212.14c-5.03-3.53-2.76,16.13,5.47,10.08,1.3-1.36-1.16-3.26-2.78-4.47-.84-.66-1.3-.76-1.75-2.05-.46-1.16-.39-2.53-.84-3.45l-.1-.1ZM284.58,215.09c-2.19-.09-4.73.82-6.96.65-2.42,0-4.73-.52-7.56-1.69-.44-.15-1-.4-1.25.01-.23,1.12-.06,3.02-.24,4.37-.08,2.54-.66,5.22.47,7.43,3.32,5.54,23.65,8.01,20.74-3.23-1-2.62-4.37-1.65-4.96-4.37-.3-1.02.13-2.09-.12-3.1l-.11-.09ZM241.42,223.3c3.93,2.64,6.6-5.12,5.54-7.89-.26-.67-.67-.28-1.21.17-1.58,1.43-3.16,3.77-4.06,5.65-.46.97-.62,1.73-.36,1.98l.1.1ZM377.71,216.38c-.47-.39-4.04-1.71-4.79-1.38-.31.14-.39.52-.42,1.04,0,2.11-.42,4.21-1.88,5.72-.72.79-1.14.96-2.24,1.42-2.27.99-5.03,2.19-7.39,3.21-.91.39-1.72.75-2.35,1.02-.78.36-1.28.46-1.12.79,4.34,4.98,7.61.5,11.27-1.8,2.02-.8,4.74.73,6.76.99.56.05.92.08,1.13-.4.41-1.6,1.47-8.92,1.1-10.52l-.07-.08ZM398.15,234.25c-6.26.89-10.29-3.53-15.65-5.48-1.01-.42-.44,1.1-.59,2.47.05,2.33-.1,4.96.05,7,.57.7,15.04.04,16.3-3.94l-.1-.05ZM294.5,230.11c-.66.31-3.73,1.8-4.98,2.41-2.19,1.1-4.4,2.07-4.55,2.26.31.65,1.84,1.74,2.74,1.9,3.13.72,6.51-.94,9.52-1.3.1-.11-.19-.39-.39-.72-.78-1.18-1.72-3.53-2.32-4.54l-.03-.02ZM245.17,250.22c.61-1.93.43-5.45.57-7.91-.06-2.29-.69-4.29-2.59-5.12-3.53-1.09-8.59-.64-12.17-.53-.48.08-.67.28-.71.86-.24,1.85,1.21,5.47-1.07,6.4-1.87.65-6.45,1.29-7.02,3.46-.35,2.22,3.53,3.21,5.23,2.97,2.17-.32,2.21-3.01,4.2-3.76,5.19-1.93,8.43,5.41,13.42,3.76l.14-.13ZM368.33,246.4c-3.73-1.56-14.31.57-11.97,6.18.5,1.3,1.51,2.59,2.81,3.04,4.65,1.68,11.84-5.84,9.24-9.13l-.08-.09ZM391.26,261.51c-2.89-2.54-10.21,1.54-8,6.32.18.18.43.23.73.18,2.37-.76,4.11-.62,5.77-.07,1.58.48,3.19,1.3,5.27,1.61.57-.02.55-.32.77-.75.18-1.25-.55-1.96-1.71-2.27-.94-.29-1.97-.93-2.21-2.18-.23-.82-.15-2.06-.52-2.73l-.1-.11ZM246.77,276.27c-.47-7.04-3.61-15.38-11.62-12.36-1.69.71.14,3.13.82,4.28,1.77,2.65,8.66,9.52,10.77,8.22l.03-.14ZM208.64,275.07c.5-.53,2.97.7,5.6,1.1,1.77.29,3.76-.08,5.04-1.38,2.39-2.43,1.43-7.52-1.49-8.79-1.53-.21-5.32,2.23-8.64,3.71-1.19.62-2.61.89-3.78,1.25-.12.08-.19.2-.23.37.19,3.12-.62,7.29-.75,10.24.03.58,1.01,1.12,1.65,1.01,2.01-.54,2.1-6.42,2.53-7.45l.06-.06ZM414.91,285.84c2.94-4.54-6.84-12.13-8.37-12.11-.44.32-.89,1.43-.22,1.92.67.83,2.81.83,3.05,1.93.28,2.39-1.58,5.3-1.5,7.87.03.48.11.61.75.55,1.73-.06,4.61.13,6.2-.07l.09-.1ZM405.26,288.63c2.19-3.59-5.1-7.5-7.83-6.85-.86.31-1.16,1.52-1.2,2.34-.28,3.48,7.82,5.13,8.95,4.59l.07-.08Z"/>
        <path class="st1" d="M290.94,138.86c-.11.13-.03.31.2.52.63.57,2.08,1.05,2.44,1.74.9,2.47-3.53,1.48-5.12,1.6-2.69-.01-5.49-.52-7.83,1.16-1.69,1.21-2.46,1.5-4.27.76-3.9-1.28-11.97-4.8-16.06-5.34-1.13-.05-1.51-.7-1.14-1.91,2.8-11.1,13.62-14.92,24.43-11.94,4.72,1.24,9.31,6.92,14.38,7.22,3.2-.07,8.98-1.88,12.51-3.13.32-.1.92-.27,1.09.04.21.36-.04,1.11-.24,1.57-3,7.4-13.17,7.35-20.31,7.65l-.08.07Z"/>
        <path class="st1" d="M376.26,197.11c-.32.46-.96.62-1.51.8-6.18,1.83-11.85,2.09-18.15.63-.89-.88,1.63-2.77-.81-2.69-2.96-.05-7.49-.07-8.03-2.72-.23-1,.8-1.43,1.68-1.46,10.03-.94,22.99-9.96,26.64,2.64.24.86.53,1.75.29,2.62l-.1.19Z"/>
        <path class="st1" d="M239.96,296.86c-1.94.32-6.38.63-8.24.85-.39-1.55-1.05-5.81-1.28-7.55,4.58-.54,10.42,1.22,9.55,6.58l-.03.12Z"/>
        <path class="st1" d="M390.26,295.65c2.69,3.42-5.48,8.09-6.83,3.62-1.05-3.3,4.66-4.67,6.72-3.73l.11.11Z"/>
      </g>
      <g>
        <path class="st1" d="M376.83,197.38c2.36-2.04,3.6-5.8,1.91-8.85-1.7-4.67-10.02-3.1-12.49-3.56-1.51-1.78,1-5.89-3.53-4.78-11.13,2.11-22.01-4.27-12.7-6.66,2.64-.68,5.35-.82,7.99-.9,3.03-.11.81-1.61-.67-2.15-1.02-.58-3.43-1.3-2.52-2.8,1.09-1.36,4.83,0,7.38.36,4.11.59,8.28-1.15,12.81-1.08,1.35.3,4.16-.71,2.23-2.21-1.38-.61-3.16-.6-4.67-1.01-2.25-.93-24.94-2.18-19.09-7.29.87-.36,2.24-.42,2.33-1.57.16-1.48-3.21-2.5-3.29-3.73,3.01-.65,11.98,1,14.91.87.66-.02.89-.34.24-.81-3.41-2-.49-6.52,1.46-8.6,6.14-4.88-6.58-6.64,9.52-9.15,2.56,1.25,5.04,4.06,7.56,5.6.83.64,2.08.89,1.82,1.76-.77.73-3.01,1.67-2.31,2.86.5,1.15,1.33,1.19,2.3,1.47,5.69,1.58,25.12,6.89,27.8,7.67,1.26.78,2.07,3.69-.27,3.77-5.36,1.34-10.87,1.63-16.16,1.65-.46.41.06,1.69.14,2.52-.08,1.89-4.78.4-5.76,1.22-1.1,1.2.21,3.92,1.48,4.69,2.29,1.12,7.97,3.34,11.29,4.25,3.87.79,9.08-1.34,11.37,3.38,2.15,2.34,6.32.16,8.94,1.62.99,1.12.61,3,.1,4.2-1.32,2.45-4.09,1.2-6.56,2.48-1.77.72-2.38,3.09-4.15,3.67-3.51.95-9.55-1.2-12.1,2.53,2.17,2.42,7.48,2.22,9.6,5.39,3.83,4.52-3.76,2.67-6.9,4.5-1.13.65-1.34,2-1.9,3.07-.97,2.11-4.34,1.57-6.16,2.38-1.86.93,1.1.98,1.88.96,4.76.12,7.5,4.02,11.93,4.33,1.6.18,3.45.14,4.89.83,4.51,2.83-2.32,6.61-5.26,7.82-1.95.88-4.38,1.66-6.29,2.09-.81.2-1.24.43-1.15.92,2.29,4.92,10.91,9.58,7.79,15.55-1.43,1.21-5.08,4.63-1.57,5.65,19.52,2.36,31.16,8.75,4.18,13.39-9.16,1.79-21.65-6.09-28.56-1.17-1.23.86-.8,1.5.45,1.65,8.55.88,17.63.21,25.99,2.14,5.41,1.65,35.27,5.46,16.5,9.92-2.27,1.83,2.63,6.19,2.86,8.87-.25.86-1.47,1.36-2.38,1.71-5.71,1.63-6.22,10.78-12.7,11.32-.64.15-.7.54-.58,1.06.26,1.38,1.76,4.35.56,5.61-2.85,1.07-7.21.65-10.25,1.52-3.21.85-4.22,6.7-9.09,5.81-3.97.03.71-6.13.14-7.88-.24-.67-1.07-.56-1.71-.65-5.05.42-12.09-5.52-16.5-3.17-2.54,10.98-1.96,22.9-1.82,34.13.63,8.97-1.48,38.52,5.8,43.12,3.56.71,15.9,2.25,21.99,2.47,4.71.14,17.47-2.19,24.95-1.8,3.05-.09,7.45,1.58,5.18,4.68-4.84,2.6-52.74,30.63-69.72,40.29-.79.26-1.85.37-2.83.52-61.85,8.52-149.19,7.63-205.33-21.22-1.78-1.71-.58-4.22.88-5.79,10.53-12.29,37.61-16.73,51.98-15.29,7.38.96,15.93,3.3,23.35,3.15,3.15-.2,5.91-.32,7.69-2.33,2.02-3.81,4.73-27.62,4.44-34.15-.29-4.96-5.31-8.75-5.2-13.96-.1-3.78,2.83-6.32,4.36-9.44,2.85-7.06,2.92-17.03,2.39-24.77-1.36-13.29-4.13-3.54-10.46-6.77-.7-.76-1.56-1.78-2.64-1.9-.7-.1-1.47.17-1.86.79-.96,1.82-4.16,5.88-7.53,5.67-5.67.28-15.2-11.26-18.06-1.48-.91,1.6-2.59,1.41-4.26.87-3.3-.7-6.91-4.43-9.98-1.63-3.66,2.81-7.93,5.85-10.15-.52-1.73-3.88,2.07-3.76,4.19-5.49,2.34-4.46-.47-9.8,7.14-7.17,14,2.41-4.69-16.91,13.58-18.09,3.36-.4,6.24,1.47,8.87-.97,5.67-6.28-4.33-1.02-6.96-2.44-7.43-5-5.32-3.09-14.16-2.18-5.96.56,3.58,5.24,3.31,7.75.13,1.29-1,1.95-2.94,2.47-2.15.55-4.12,1.35-5.96,1.37-2.29.03-4.89-3.15-7.06-1.72-.59.59.07,1.74,1.1,2.35,1.87,1.13,4.36,1.72,5.45,3.83,1.25,1.82.36,5.13-1.29,5.26-2.23.05-3.96-2.56-5.92-3.58-3.21-3.4-17.69,1.12-9.4-5.66,1.48-1.15,3.66-2.45,4.78-3.76,1.77-1.79,0-4-2.05-2.81-2.55.95-3.68,5.48-6.68,4.95-1.57-.47-2.98-2.52-5.14-2.69-.88-.14-1.63-.59-1.03-1.55,2.23-4.22,4.92-7.75,8.64-10.69.55-.73-.3-1.06-1.14-1.53-10.32-4.87,2.27-11.34,8.04-12.52,10.64-2.67,21.99-.64,32.5-.84,5.37.08,10.63-3.18,16.07-2.9,4.97-.57,10.21,1.53,14.95.85,1.12-2.3-2.89-2.79-4.17-3.79-1.52-1.08-1.26-3.57-3.62-4.63-1.65-.77-5.54-1.31-4.58,1.61.67,2.03.67,2.16-1.41,2.19-8.05.56-27.17,1.91-30.63,2.14-7.12-2.63-14.65-4.85-22.36-5.22-1.09-.44,1.68-3.2.64-3.61-3.65-.38-9.33-.41-10.62-3.57-.98-2.32,1-3.35,3.08-2.94,6.1.52,10.83-4.26,15.1-4.61,6.17-.36,16.71,4.49,19.08-4.2.71-3.74-5.23-4.75-6.05-8.07-.76-4.5,5.41-7.52,8.32-9.62,1.09-1.28-1.68-2.47-1.32-3.8,1.32-2.81,11.28-5.14,7.94-8.78-1.73-1.45-5.52-1.19-8.01-1.16-.61-.02-1.24-.08-.84-.79.11-.19.27-.4.44-.62,3.01-3.08-11.52-.06-12.15-1.46-.32-.17-.72-.95-.23-1.42,1.29-1.26,3.48-2.72,1.48-4.57-4.28-4.14-12.17.55-17.27-1.04-2.38-1.27,1.7-2.63,3.07-3.49,7.3-8.97,14.32-4.39,23.16-4.29,2.81.15,5.05-3.21,7.24-4.13,2.38-.05,16.72.03,19.77-.04,1.09-.24.2-1.16-1.16-1.81-1.76-.95-5.95-.42-7.05-1.01-.69-.54-.49-1.54-.58-2.37.04-3.03-1.15-5.54-2.44-8.34-.55-2.56-3.61-3.58-4.09-5.71.39-2.94,8.56-4.67,7.1-6.82-.86-1.1-4.37-.8-5.09-1.68-.86-.8.76-3.1-.07-3.63-2.27-.23-17.44-1.06-21.46-1.32-3.35.05,5.16-4.26,1-4.25-5.43-.75-18.32-4.47-15.08-10.54,3.52-5.63,10.85-1.48,14.36-.57,1.96-.27,2.68-3.1,4.03-4.41,4.61-4.94,11.86-.32,17.04-1.18,5.08-1.69,14.55-5.46,18.43-7.08,2.78-1.04,5.89-4.5,4.67-7.37-1.39-3.91-8.94,1.02-9.48-3.25,2.29-4.89,10.76,1.58,12.21-4.28-2.8-3.64-16.84,2.54-21.62,1.79-7.04.53-11.65-5.81-18.56-5.66-2.05.46-3.37-1.69-2.62-3.45,1.74-1.94,10.52-2.43,15.85-3.78,2.58-.36,3.48-.9,5.87-.13,1.81.5,3.53,2.11,5.46,1.96,1.45-.12,2.22-1.57,3-2.73,2.45-6.17,12.95-3.18,16.78-3.78.7-.09.84-.38.84-1.17-.22-3.1.03-7.51,3.06-9.5,3.25-2.57,7.31-.56,9.68-3.17,5.45-8.66,11.27-1.11,17.99.78,1.12,1.43-1.01,3.49-1.44,4.95-1.79,4.8,5.07,2.82,7.02,4.82.35,1.65-6.91,2.3-5.01,3.55.51.1,2.57.86,1.72,1.49-3.15,2.23,6.36-.96,5.2,3.05-.22,3.52-4.17,2.71-6.51,3.34-1.49.37-2.16,1.6-3.88,2.48-1.65,1.05-3.73.28-5.43.98-.74.7.37,2.63,1.37,2.76,5.48.39,27.07-4.84,34.28-3.42-1.72,4.53-12.55,5.35-16.4,5.42,4.04,1,14.13.93,17.07,2.26,3.53,6.39-1.66,5.54-6.37,4.97-2.89.11-4.71,2.91-7.81,3.44-8.09,1.53-18,.85-26.44,1.41-3.03-.29-3.89,5.13-1.58,6.2,1.74.56,4.89-.8,7.58-.53,4.2.31,8.33,2.05,12.48,2.52,8.21,1.3,17.74-1.21,25.61.75-1.22,3.49-18.64,2.63-21.31,5.46-.14,5.31,20.68,3.27,20.79,8.05-1.02,2.7-5.59,1.74-8.08,2.22-2.73.22-5.08-.06-7.53.96-1.69.78-4.08,2.06-5.26,1.77-1.46-.44-1.99-2.27-3.16-3.15-.76-.69-1.55-.98-2.16-.14-1.71,2.7-.87,6.51-1.54,9.62-2.18,2.93-14.72-7.41-19.59-6.46-6.2-.39-4.21,24.61-3.6,26.27.61,1.63,2.48,1.36,4.03,2.26,4.1,2.56,6.4,4.04,11.22,3.13,2.59-.06,4.23,2.68,6.4,3.46,4.38.48,9.8-.57,14.25-1.6,1.72-.46,4.1-2.82,5.51-1.18,1.14,2.42,1.7,8.55,2.37,10.66.32,1.07,1.29.86,2.27.66,5.33-2.45,7.11,3.43,12.09,4.08,15.85,1.68-11.73,8.02-15.52,6.15-.97.05-.89.77-.78,1.62.67,2.72.21,7.47,1.37,9.89,2.11,2.57,7.59,2.45,7.5,6.82.03,2.86-1.07,7.52-.36,11.05,1.25,3.92-9.16-1.91-10.13-2.11-1.63-1.01-4.01-5.08-5.45-1.64-.32,3.51,4.28,6.84,6.84,8.77,2.37,1.33,6.34.28,9.32.81,3.34.51,6.7,3.05,9.54,3.32,3.34.52,8.39-1.78,10.67,1.52,1.89,4.46-2.21,4.82-5.37,6.08-4.27,2.02-3.56,4.35-3.05,8.52.12,2.37-1.76,5.7-.29,7.13,4.07,3-.4,4.92-3.59,3.7-1.24.25.11,2.39-.19,3.51-.08,2-.9,3.79-.2,5.31,1.04,1.66,3.08,4.92-.73,4.32-3.22-.59-5.24-3.75-7.93-5.12-1.34-.32-3.82,1-6.06.69-2.07-.46-2.85.65-2.48,2.91.52,10.86,15.54-5.88,16.42,11.83,1.64,8.02,16.42-3.36,17.73,7.17.35,9.39-29.43.43-31.92,5-.04,1.36,3.15,3.36,4.64,3.27,2.21-.66,6.77-2.84,9.17.51.93,1.15,2.21,2.58.51,2.63-3.38,0-14.91,0-17.7,0-2.54.23-2-3.74-3.63-4.63-4.18,1.74-10.31,3.64-14.12,1.1-2.06-1.91-2.4-5.45-4.78-7.14-4.6-3.07-11.8-.47-14.86-6.23-.59-.54-1.11.16-1.36.75-3.08,9.45,9.16,11.65,11.97,17.65,2.13,7.82-1.14,7.42-8.88,5.56-3.8-.56.33,1.54-.69,3.91-1.41,4.9-5.63,9.74-5.07,15.54-.61,24.99,7.41,47.57,5.56,72.14.01,1.69,1.02,2.3,2.46,2.04,11.31-1.68,23.51-1.13,34.55-2.69,16.42-4.25,6.26-7.99,31.37-9.42,43.26-6.15,39.18,14.06,39.89-24.93.79-15.34,7.74-32.29,2.35-47.57-1.49-2.39-4.82.4-5.16-1.99-.19-1.14-.17-2.67-.07-3.79.41-3.47,6.51-3.28,8.03-7.36,1.43-4.28-5.92-.96-7.85-.95-2.82.53-3.41,3.57-5.4,5.16-1.99,1.64-4.84-.05-7.16-.07-3.92.09-10.56,2.25-13.49.96-3.6-3.19,4.49-3.18,6.21-3.64,3.77-.61-2.24-.78-3.76-.67-5.59.17-13.01.65-13.3-3.25.21-4.5,7.08-2.78,9.9-3.23,1.82-.66.51-3.75,1.8-5.12,2.01-3.71,7.03,1.06,9.16-2.07,1.57-4.72-7.16,1.04-9.92-3.16-5.95-5.9,1.42-14.87-4.68-18.97-4.26-1.91-1.3-4.13,1.71-4.6,5.28-1.52,14.46.56,17.01-5.13.45-1.98-.99-1.53-2.91-.79-2.75,1.11-4.99,2.03-4.84-1.66-.22-6.56,6.1-9.37,5.9-15.58-.32-3.4-6.02-.04-6.93-2.91-.73-5.25,3.13-4.66,6.2-5.86,1.2-1.06,1.27-4,2.71-4.68,5.09-1.71,20.2,5.78,22.67-4.27l.1-.16ZM242.63,107.06c-1.44-1.19-3.69-.45-5.04.7-1.94,1.49-2.04,4.48-.26,6.18,3.6,2.13,7.16-4.5,5.4-6.77l-.1-.1ZM250.67,122.26c-5.32-1.19-21.45,3.61-11.04,9.76,10.24,5.92,11.19-.19,11.15-9.62l-.1-.14ZM265.43,167.17c-11.03-2-6.88,7.8-8.76,16.11-.1.5-.54,1.43-.02,1.55,1.71-.16,11.9-2,15.47-2.49.72.02.41,1.41.45,2.06-.66,7.51,7.04,7.21,12.7,5.18,1.72-.64,6.83-4.79,3.25-5.9-1.52-.42-3.95-.03-4.76,1.47-.22.38-.33.71-.63.92-.41.31-1.25.32-1.84.2-3.96-.63-2.05-6.41-2.6-10.45-.12-.62-.16-1.57-.87-1.61-1.24.13-9.1,2.91-10.37,3.09-.57-.21-.35-1.32-.56-2.1-.23-1.77-.58-4.44-.81-6.16-.15-1.01-.13-1.58-.52-1.82l-.13-.07ZM242.52,174.09c-7.4,3.51-8-1.19-13.96-4.01-1.1-.39-.87.56-.81,1.63.41,9.74,6.35,6.98,14.21,7.82,1.26.14.57-1.39.74-2.73-.06-1.24.12-2.16-.1-2.7h-.08ZM209.97,183.69c-2.52,20.98,15.59,3.85.09-.07l-.09.07ZM248.17,184.95c-1.46.61-10.06,5.37-14.76,7.82-1.43.62-2.17,1.51-3.58,1.59-1.48.43-9.86-4.59-10.24-.86.22,1.92,3.34,1.84,4.71,2.99,1.3,1.18,1.85,3.57,4.01,3.38,2.73-.06,4.29-2.75,6.1-1.96,2.92,1.64,8.45,5.39,12.51,5.08.72-.06,1.33-.2,1.32-.95-.03-2.49.08-13.1-.04-17.07l-.03-.02ZM264.53,187.71c-1.46-.06-6.39-.02-6.76-.02-.1.08-.06.26-.07.37,0,1.2,0,3.23.01,4.48,0,.44-.03.59.15.7,1.22.92,5.97-3.39,6.68-5.48v-.06ZM391.61,191.65c2.02-3.42-6.95-5.05-8.26-3.92-.05,1.72,0,4.47-.01,6.28,0,.52-.06.54.29.51,2.12-.47,6.09-1.8,7.91-2.77l.08-.1ZM258.93,212.14c-5.03-3.53-2.76,16.13,5.47,10.08,1.3-1.36-1.16-3.26-2.78-4.47-.84-.66-1.3-.76-1.75-2.05-.46-1.16-.39-2.53-.84-3.45l-.1-.1ZM284.58,215.09c-2.19-.09-4.73.82-6.96.65-2.42,0-4.73-.52-7.56-1.69-.44-.15-1-.4-1.25.01-.23,1.12-.06,3.02-.24,4.37-.08,2.54-.66,5.22.47,7.43,3.32,5.54,23.65,8.01,20.74-3.23-1-2.62-4.37-1.65-4.96-4.37-.3-1.02.13-2.09-.12-3.1l-.11-.09ZM241.42,223.3c3.93,2.64,6.6-5.12,5.54-7.89-.26-.67-.67-.28-1.21.17-1.58,1.43-3.16,3.77-4.06,5.65-.46.97-.62,1.73-.36,1.98l.1.1ZM377.71,216.38c-.47-.39-4.04-1.71-4.79-1.38-.31.14-.39.52-.42,1.04,0,2.11-.42,4.21-1.88,5.72-.72.79-1.14.96-2.24,1.42-2.27.99-5.03,2.19-7.39,3.21-.91.39-1.72.75-2.35,1.02-.78.36-1.28.46-1.12.79,4.34,4.98,7.61.5,11.27-1.8,2.02-.8,4.74.73,6.76.99.56.05.92.08,1.13-.4.41-1.6,1.47-8.92,1.1-10.52l-.07-.08ZM398.15,234.25c-6.26.89-10.29-3.53-15.65-5.48-1.01-.42-.44,1.1-.59,2.47.05,2.33-.1,4.96.05,7,.57.7,15.04.04,16.3-3.94l-.1-.05ZM294.5,230.11c-.66.31-3.73,1.8-4.98,2.41-2.19,1.1-4.4,2.07-4.55,2.26.31.65,1.84,1.74,2.74,1.9,3.13.72,6.51-.94,9.52-1.3.1-.11-.19-.39-.39-.72-.78-1.18-1.72-3.53-2.32-4.54l-.03-.02ZM245.17,250.22c.61-1.93.43-5.45.57-7.91-.06-2.29-.69-4.29-2.59-5.12-3.53-1.09-8.59-.64-12.17-.53-.48.08-.67.28-.71.86-.24,1.85,1.21,5.47-1.07,6.4-1.87.65-6.45,1.29-7.02,3.46-.35,2.22,3.53,3.21,5.23,2.97,2.17-.32,2.21-3.01,4.2-3.76,5.19-1.93,8.43,5.41,13.42,3.76l.14-.13ZM368.33,246.4c-3.73-1.56-14.31.57-11.97,6.18.5,1.3,1.51,2.59,2.81,3.04,4.65,1.68,11.84-5.84,9.24-9.13l-.08-.09ZM391.26,261.51c-2.89-2.54-10.21,1.54-8,6.32.18.18.43.23.73.18,2.37-.76,4.11-.62,5.77-.07,1.58.48,3.19,1.3,5.27,1.61.57-.02.55-.32.77-.75.18-1.25-.55-1.96-1.71-2.27-.94-.29-1.97-.93-2.21-2.18-.23-.82-.15-2.06-.52-2.73l-.1-.11ZM246.77,276.27c-.47-7.04-3.61-15.38-11.62-12.36-1.69.71.14,3.13.82,4.28,1.77,2.65,8.66,9.52,10.77,8.22l.03-.14ZM208.64,275.07c.5-.53,2.97.7,5.6,1.1,1.77.29,3.76-.08,5.04-1.38,2.39-2.43,1.43-7.52-1.49-8.79-1.53-.21-5.32,2.23-8.64,3.71-1.19.62-2.61.89-3.78,1.25-.12.08-.19.2-.23.37.19,3.12-.62,7.29-.75,10.24.03.58,1.01,1.12,1.65,1.01,2.01-.54,2.1-6.42,2.53-7.45l.06-.06ZM414.91,285.84c2.94-4.54-6.84-12.13-8.37-12.11-.44.32-.89,1.43-.22,1.92.67.83,2.81.83,3.05,1.93.28,2.39-1.58,5.3-1.5,7.87.03.48.11.61.75.55,1.73-.06,4.61.13,6.2-.07l.09-.1ZM405.26,288.63c2.19-3.59-5.1-7.5-7.83-6.85-.86.31-1.16,1.52-1.2,2.34-.28,3.48,7.82,5.13,8.95,4.59l.07-.08Z"/>
        <path class="st1" d="M290.94,138.86c-.11.13-.03.31.2.52.63.57,2.08,1.05,2.44,1.74.9,2.47-3.53,1.48-5.12,1.6-2.69-.01-5.49-.52-7.83,1.16-1.69,1.21-2.46,1.5-4.27.76-3.9-1.28-11.97-4.8-16.06-5.34-1.13-.05-1.51-.7-1.14-1.91,2.8-11.1,13.62-14.92,24.43-11.94,4.72,1.24,9.31,6.92,14.38,7.22,3.2-.07,8.98-1.88,12.51-3.13.32-.1.92-.27,1.09.04.21.36-.04,1.11-.24,1.57-3,7.4-13.17,7.35-20.31,7.65l-.08.07Z"/>
        <path class="st1" d="M376.26,197.11c-.32.46-.96.62-1.51.8-6.18,1.83-11.85,2.09-18.15.63-.89-.88,1.63-2.77-.81-2.69-2.96-.05-7.49-.07-8.03-2.72-.23-1,.8-1.43,1.68-1.46,10.03-.94,22.99-9.96,26.64,2.64.24.86.53,1.75.29,2.62l-.1.19Z"/>
        <path class="st1" d="M239.96,296.86c-1.94.32-6.38.63-8.24.85-.39-1.55-1.05-5.81-1.28-7.55,4.58-.54,10.42,1.22,9.55,6.58l-.03.12Z"/>
        <path class="st1" d="M390.26,295.65c2.69,3.42-5.48,8.09-6.83,3.62-1.05-3.3,4.66-4.67,6.72-3.73l.11.11Z"/>
      </g>
    </g>
  </g>
  <g>
    <path class="st0" d="M463.24,251.95c0-23.98,0-28.4-.32-33.45-.32-5.37-1.58-7.89-6.78-8.99-1.26-.32-3.94-.47-6.15-.47-1.74,0-2.68-.32-2.68-1.42s1.1-1.42,3.47-1.42c8.36,0,18.3.47,22.72.47,6.47,0,15.62-.47,22.88-.47,19.72,0,26.04,6,29.67,9.47,3.47,3.47,7.57,9.78,7.57,20.67,0,19.41-16.41,35.82-38.82,35.82-.79,0-2.52,0-3.31-.16-.79-.16-1.89-.32-1.89-1.42,0-1.26,1.1-1.74,4.42-1.74,8.84,0,21.14-10.1,21.14-26.19,0-5.21,0-15.62-8.84-23.51-5.68-5.21-12.62-6.15-16.25-6.15-2.37,0-4.73.16-6.15.63-.79.32-1.26,1.26-1.26,3v63.12c0,14.52,0,26.98.79,33.77.47,4.42,1.42,7.89,6.15,8.52,2.21.32,5.68.63,8.05.63,1.74,0,2.52.47,2.52,1.26,0,1.1-1.26,1.58-3,1.58-10.41,0-20.35-.47-24.46-.47-3.63,0-13.57.47-19.88.47-2.05,0-3.16-.47-3.16-1.58,0-.79.63-1.26,2.52-1.26,2.37,0,4.26-.32,5.68-.63,3.16-.63,3.94-4.1,4.58-8.68.79-6.63.79-19.09.79-33.61v-27.77Z"/>
    <path class="st0" d="M563.72,260.07c0-21.32,0-25.25-.28-29.73-.28-4.77-1.4-7.01-6.03-7.99-1.12-.28-3.51-.42-5.47-.42-1.54,0-2.38-.28-2.38-1.26s.98-1.26,3.09-1.26c6.45,0,12.9.42,20.2.42,4.49,0,32.4,0,35.06-.14,2.66-.28,4.91-.56,6.03-.84.7-.14,1.54-.56,2.24-.56s.84.56.84,1.26c0,.98-.7,2.67-1.12,9.12-.14,1.4-.42,7.57-.7,9.26-.14.7-.42,1.54-1.4,1.54s-1.26-.84-1.26-2.52c0-.56-.14-2.81-.84-4.49-.98-2.52-2.38-4.21-9.4-5.05-2.38-.28-17.11-.56-19.92-.56-.7,0-.98.42-.98,1.4v35.49c0,.98.14,1.54.98,1.54,3.09,0,19.22,0,22.44-.28,3.37-.28,5.47-.7,6.73-2.1.98-1.12,1.54-1.82,2.24-1.82.56,0,.98.28.98,1.12s-.56,3.09-1.12,10.24c-.14,2.81-.56,8.42-.56,9.4,0,1.12,0,2.67-1.26,2.67-.98,0-1.26-1.54-1.26-2.24-.14-1.4-.14-2.24-.56-4.07-.7-2.8-2.67-4.91-7.85-5.47-2.67-.28-16.55-.42-19.92-.42-.7,0-.84.56-.84,1.4v11.08c0,4.77-.14,17.67,0,21.74.28,9.68,2.52,11.78,16.83,11.78,3.65,0,9.54,0,13.18-1.68,3.65-1.68,5.33-4.63,6.31-10.38.28-1.54.56-2.1,1.54-2.1,1.12,0,1.12,1.12,1.12,2.52,0,3.23-1.12,12.76-1.82,15.57-.98,3.65-2.24,3.65-7.57,3.65-12.48,0-24.83-.84-38.85-.84-5.61,0-11.36.42-17.67.42-1.82,0-2.8-.42-2.8-1.4,0-.7.56-1.12,2.24-1.12,2.1,0,3.79-.28,5.05-.56,2.81-.56,3.51-3.65,4.07-7.71.7-5.89.7-16.97.7-29.88v-24.69Z"/>
    <path class="st0" d="M646.76,221.78c0-2.81.42-4.77,1.82-4.77,1.54,0,2.81,1.82,5.19,4.35,1.68,1.82,23,24.69,43.48,45.02,9.54,9.54,29.17,30.44,31.56,32.68l-1.4-63.68c-.14-8.56-1.4-11.22-4.77-12.62-2.1-.84-5.47-.84-7.43-.84-1.68,0-2.24-.42-2.24-1.26,0-1.12,1.54-1.26,3.65-1.26,7.29,0,14.03.42,16.97.42,1.54,0,6.87-.42,13.75-.42,1.82,0,3.23.14,3.23,1.26,0,.84-.84,1.26-2.52,1.26-1.4,0-2.52,0-4.21.42-3.93,1.12-5.05,4.07-5.19,11.92-.56,29.59-.98,58.91-1.54,88.5,0,3.09-.56,4.35-1.82,4.35-1.54,0-3.23-1.54-4.77-3.09-8.84-8.42-26.79-26.79-41.38-41.24-15.29-15.15-31.28-33.1-33.8-35.77l1.54,59.33c.28,10.94,2.1,14.59,4.91,15.57,2.38.84,5.05.98,7.29.98,1.54,0,2.38.28,2.38,1.12,0,1.12-1.26,1.4-3.23,1.4-9.12,0-14.73-.42-17.39-.42-1.26,0-7.85.42-15.15.42-1.82,0-3.09-.14-3.09-1.4,0-.84.84-1.12,2.24-1.12,1.82,0,4.35-.14,6.31-.7,3.65-1.12,4.21-5.19,4.35-17.39.42-29.74.98-64.38,1.26-83.03Z"/>
    <path class="st0" d="M780.43,260.07c0-21.32,0-25.25-.28-29.73-.28-4.77-1.4-7.01-6.03-7.99-1.12-.28-3.51-.42-5.47-.42-1.54,0-2.38-.28-2.38-1.26s.98-1.26,3.09-1.26c7.43,0,16.27.42,20.2.42,4.35,0,13.18-.42,21.6-.42,17.53,0,40.96,0,56.24,15.99,7.01,7.29,13.6,18.94,13.6,35.63,0,17.67-7.43,31.14-15.29,39.13-6.45,6.59-21.04,16.55-46.99,16.55-5.05,0-10.8-.42-16.13-.84-5.33-.42-10.24-.84-13.75-.84-1.54,0-4.63,0-7.99.14-3.23,0-6.87.28-9.68.28-1.82,0-2.8-.42-2.8-1.4,0-.7.56-1.12,2.24-1.12,2.1,0,3.79-.28,5.05-.56,2.81-.56,3.51-3.65,4.07-7.71.7-5.89.7-16.97.7-29.88v-24.69ZM797.96,275.5c0,14.87.14,25.67.28,28.33.14,3.51.42,9.12,1.54,10.66,1.82,2.67,7.29,5.61,18.37,5.61,14.31,0,23.84-2.81,32.26-10.1,8.98-7.71,11.78-20.48,11.78-34.92,0-17.81-7.43-29.31-13.46-35.06-12.9-12.34-28.89-14.03-39.83-14.03-2.81,0-7.99.42-9.12.98-1.26.56-1.68,1.26-1.68,2.81-.14,4.77-.14,16.97-.14,28.05v17.67Z"/>
    <path class="st0" d="M909.61,260.07c0-21.32,0-25.25-.28-29.73-.28-4.77-1.4-7.01-6.03-7.99-1.12-.28-3.51-.42-5.47-.42-1.54,0-2.38-.28-2.38-1.26s.98-1.26,3.09-1.26c6.45,0,12.9.42,20.2.42,4.49,0,32.4,0,35.06-.14,2.67-.28,4.91-.56,6.03-.84.7-.14,1.54-.56,2.24-.56s.84.56.84,1.26c0,.98-.7,2.67-1.12,9.12-.14,1.4-.42,7.57-.7,9.26-.14.7-.42,1.54-1.4,1.54s-1.26-.84-1.26-2.52c0-.56-.14-2.81-.84-4.49-.98-2.52-2.38-4.21-9.4-5.05-2.38-.28-17.11-.56-19.92-.56-.7,0-.98.42-.98,1.4v35.49c0,.98.14,1.54.98,1.54,3.09,0,19.22,0,22.44-.28,3.37-.28,5.47-.7,6.73-2.1.98-1.12,1.54-1.82,2.24-1.82.56,0,.98.28.98,1.12s-.56,3.09-1.12,10.24c-.14,2.81-.56,8.42-.56,9.4,0,1.12,0,2.67-1.26,2.67-.98,0-1.26-1.54-1.26-2.24-.14-1.4-.14-2.24-.56-4.07-.7-2.8-2.67-4.91-7.85-5.47-2.67-.28-16.55-.42-19.92-.42-.7,0-.84.56-.84,1.4v11.08c0,4.77-.14,17.67,0,21.74.28,9.68,2.52,11.78,16.83,11.78,3.65,0,9.54,0,13.18-1.68,3.65-1.68,5.33-4.63,6.31-10.38.28-1.54.56-2.1,1.54-2.1,1.12,0,1.12,1.12,1.12,2.52,0,3.23-1.12,12.76-1.82,15.57-.98,3.65-2.24,3.65-7.57,3.65-12.48,0-24.83-.84-38.85-.84-5.61,0-11.36.42-17.67.42-1.82,0-2.8-.42-2.8-1.4,0-.7.56-1.12,2.24-1.12,2.1,0,3.79-.28,5.05-.56,2.81-.56,3.51-3.65,4.07-7.71.7-5.89.7-16.97.7-29.88v-24.69Z"/>
    <path class="st0" d="M996.85,260.07c0-21.32,0-25.25-.28-29.73-.28-4.77-1.4-7.01-6.03-7.99-1.12-.28-3.51-.42-5.47-.42-1.54,0-2.38-.28-2.38-1.26s.98-1.26,3.09-1.26c7.43,0,16.27.42,19.22.42,4.77,0,15.43-.42,19.78-.42,8.84,0,18.23.84,25.81,6.03,3.93,2.67,9.54,9.82,9.54,19.22,0,10.38-4.21,19.78-18.37,31.28,12.48,15.71,22.16,28.33,30.44,37.03,7.85,8.13,13.46,9.12,15.57,9.54,1.54.28,2.81.42,3.93.42s1.68.42,1.68,1.12c0,1.12-.98,1.4-2.67,1.4h-13.75c-7.85,0-11.36-.7-15.01-2.67-6.03-3.23-11.36-9.82-19.21-20.62-5.61-7.71-12.06-17.25-13.89-19.36-.7-.84-1.54-.98-2.52-.98l-11.78-.28c-.7,0-1.12.28-1.12,1.12v1.96c0,13.04,0,24.12.7,30.02.42,4.07,1.26,7.15,5.47,7.71,2.1.28,5.19.56,6.87.56,1.12,0,1.68.42,1.68,1.12,0,.98-.98,1.4-2.81,1.4-8.13,0-18.51-.42-20.62-.42-2.67,0-11.5.42-17.11.42-1.82,0-2.8-.42-2.8-1.4,0-.7.56-1.12,2.24-1.12,2.1,0,3.79-.28,5.05-.56,2.81-.56,3.51-3.65,4.07-7.71.7-5.89.7-16.97.7-29.88v-24.69ZM1013.4,271.15c0,1.54.28,2.1,1.26,2.52,2.95.98,7.15,1.4,10.66,1.4,5.61,0,7.43-.56,9.96-2.38,4.21-3.09,8.27-9.54,8.27-21.04,0-19.92-13.18-25.67-21.46-25.67-3.51,0-6.03.14-7.43.56-.98.28-1.26.84-1.26,1.96v42.64Z"/>
  </g>
  <g>
    <path class="st1" d="M1142.61,250.37c0-23.98,0-28.4-.32-33.45-.32-5.37-1.89-8.05-5.37-8.84-1.74-.47-3.79-.63-5.68-.63-1.58,0-2.52-.32-2.52-1.58,0-.95,1.26-1.26,3.79-1.26,6,0,15.94.47,20.51.47,3.94,0,13.25-.47,19.25-.47,2.05,0,3.31.32,3.31,1.26,0,1.26-.95,1.58-2.53,1.58s-2.84.16-4.73.47c-4.26.79-5.52,3.47-5.84,8.99-.32,5.05-.32,9.47-.32,33.45v27.77c0,15.31,0,27.77.63,34.56.47,4.26,1.58,7.1,6.31,7.73,2.21.32,5.68.63,8.05.63,1.74,0,2.53.47,2.53,1.26,0,1.1-1.26,1.58-3,1.58-10.41,0-20.36-.47-24.62-.47-3.63,0-13.57.47-19.88.47-2.05,0-3.16-.47-3.16-1.58,0-.79.63-1.26,2.52-1.26,2.37,0,4.26-.32,5.68-.63,3.16-.63,4.1-3.31,4.58-7.89.79-6.63.79-19.09.79-34.4v-27.77Z"/>
    <path class="st1" d="M1204.49,322.17c-2.24-.98-2.67-1.68-2.67-4.77,0-7.71.56-16.13.7-18.37.14-2.1.56-3.65,1.68-3.65,1.26,0,1.4,1.26,1.4,2.38,0,1.82.56,4.77,1.26,7.15,3.09,10.38,11.36,14.17,20.06,14.17,12.62,0,18.79-8.56,18.79-15.99,0-6.87-2.1-13.32-13.75-22.44l-6.45-5.05c-15.43-12.06-20.76-21.88-20.76-33.24,0-15.43,12.9-26.51,32.4-26.51,5.33,0,9.54.56,12.9,1.12,2.38.42,4.21.84,5.75,1.26,1.26.28,1.96.7,1.96,1.68,0,1.82-.56,5.89-.56,16.83,0,3.09-.42,4.21-1.54,4.21-.98,0-1.4-.84-1.4-2.52,0-1.26-.7-5.61-3.65-9.26-2.1-2.67-6.17-6.87-15.29-6.87-10.38,0-16.69,6.03-16.69,14.45,0,6.45,3.23,11.36,14.87,20.2l3.93,2.95c16.97,12.76,23,22.44,23,35.77,0,8.14-3.09,17.81-13.18,24.41-7.01,4.49-14.87,5.75-22.3,5.75-8.13,0-14.45-.98-20.48-3.65Z"/>
    <path class="st1" d="M1311.79,283.18c0,17.95,0,27.63,2.95,30.16,2.38,2.1,6.03,3.09,16.97,3.09,7.43,0,12.9-.14,16.41-3.93,1.68-1.82,3.37-5.75,3.65-8.42.14-1.26.42-2.1,1.54-2.1.98,0,1.12.7,1.12,2.38,0,1.54-.98,12.06-2.1,16.13-.84,3.09-1.54,3.79-8.84,3.79-12.9,0-25.81-.84-40.82-.84-5.61,0-11.36.42-17.67.42-1.82,0-2.8-.42-2.8-1.4,0-.7.56-1.12,2.24-1.12,2.1,0,3.79-.28,5.05-.56,2.81-.56,3.51-3.65,4.07-7.71.7-5.89.7-16.97.7-29.88v-24.69c0-21.32,0-25.25-.28-29.73-.28-4.77-1.4-7.01-6.03-7.99-1.12-.28-2.8-.42-4.63-.42-1.54,0-2.38-.28-2.38-1.26s.98-1.26,3.09-1.26c6.59,0,15.43.42,19.22.42,3.37,0,13.6-.42,19.07-.42,1.96,0,2.95.28,2.95,1.26s-.84,1.26-2.53,1.26c-1.54,0-3.79.14-5.47.42-3.79.7-4.91,3.09-5.19,7.99-.28,4.49-.28,8.42-.28,29.73v24.69Z"/>
    <path class="st1" d="M1391.46,287.24c-.7,0-.98.28-1.26,1.12l-7.57,20.06c-1.4,3.51-2.1,6.87-2.1,8.56,0,2.53,1.26,4.35,5.61,4.35h2.1c1.68,0,2.1.28,2.1,1.12,0,1.12-.84,1.4-2.38,1.4-4.49,0-10.52-.42-14.87-.42-1.54,0-9.26.42-16.55.42-1.82,0-2.67-.28-2.67-1.4,0-.84.84-1.12,1.96-1.12,1.26,0,2.95-.14,4.07-.28,6.45-.84,9.12-5.61,11.92-12.62l35.21-88.08c1.68-4.07,2.67-5.61,3.93-5.61,1.12,0,2.1,1.26,3.51,4.49,3.37,7.71,25.81,64.94,34.78,86.26,5.33,12.62,9.4,14.59,12.34,15.29,2.1.42,4.21.56,5.89.56,1.12,0,1.82.28,1.82,1.12,0,1.12-1.26,1.4-6.45,1.4s-16.27,0-27.49-.28c-2.52-.14-3.23-.28-3.23-1.12,0-.7.56-1.12,1.96-1.26.98-.28,1.96-1.54,1.26-3.23l-11.22-29.74c-.28-.7-.7-.98-1.4-.98h-31.28ZM1420.07,280.23c.7,0,.84-.42.7-.84l-12.62-34.64c-.42-1.26-.98-1.68-1.54,0l-12.9,34.5c-.14.56,0,.98.56.98h25.81Z"/>
    <path class="st1" d="M1481.92,220.2c0-2.81.42-4.77,1.82-4.77,1.54,0,2.8,1.82,5.19,4.35,1.68,1.82,23,24.69,43.48,45.02,9.54,9.54,29.17,30.44,31.56,32.68l-1.4-63.68c-.14-8.56-1.4-11.22-4.77-12.62-2.1-.84-5.47-.84-7.43-.84-1.68,0-2.24-.42-2.24-1.26,0-1.12,1.54-1.26,3.65-1.26,7.29,0,14.03.42,16.97.42,1.54,0,6.87-.42,13.75-.42,1.82,0,3.23.14,3.23,1.26,0,.84-.84,1.26-2.52,1.26-1.4,0-2.52,0-4.21.42-3.93,1.12-5.05,4.07-5.19,11.92-.56,29.59-.98,58.91-1.54,88.5,0,3.09-.56,4.35-1.82,4.35-1.54,0-3.23-1.54-4.77-3.08-8.84-8.42-26.79-26.79-41.38-41.24-15.29-15.15-31.28-33.1-33.8-35.77l1.54,59.33c.28,10.94,2.1,14.59,4.91,15.57,2.38.84,5.05.98,7.29.98,1.54,0,2.38.28,2.38,1.12,0,1.12-1.26,1.4-3.23,1.4-9.12,0-14.73-.42-17.39-.42-1.26,0-7.85.42-15.15.42-1.82,0-3.09-.14-3.09-1.4,0-.84.84-1.12,2.24-1.12,1.82,0,4.35-.14,6.31-.7,3.65-1.12,4.21-5.19,4.35-17.39.42-29.74.98-64.38,1.26-83.03Z"/>
    <path class="st1" d="M1615.74,258.49c0-21.32,0-25.25-.28-29.73-.28-4.77-1.4-7.01-6.03-7.99-1.12-.28-3.51-.42-5.47-.42-1.54,0-2.38-.28-2.38-1.26s.98-1.26,3.09-1.26c7.43,0,16.27.42,20.2.42,4.35,0,13.18-.42,21.6-.42,17.53,0,40.96,0,56.24,15.99,7.01,7.29,13.61,18.94,13.61,35.63,0,17.67-7.43,31.14-15.29,39.13-6.45,6.59-21.04,16.55-46.99,16.55-5.05,0-10.8-.42-16.13-.84s-10.24-.84-13.75-.84c-1.54,0-4.63,0-8,.14-3.23,0-6.87.28-9.68.28-1.82,0-2.8-.42-2.8-1.4,0-.7.56-1.12,2.24-1.12,2.1,0,3.79-.28,5.05-.56,2.81-.56,3.51-3.65,4.07-7.71.7-5.89.7-16.97.7-29.88v-24.69ZM1633.27,273.92c0,14.87.14,25.67.28,28.33.14,3.51.42,9.12,1.54,10.66,1.82,2.67,7.29,5.61,18.37,5.61,14.31,0,23.84-2.8,32.26-10.1,8.98-7.71,11.78-20.48,11.78-34.92,0-17.81-7.43-29.31-13.46-35.06-12.9-12.34-28.89-14.03-39.83-14.03-2.8,0-7.99.42-9.12.98-1.26.56-1.68,1.26-1.68,2.81-.14,4.77-.14,16.97-.14,28.05v17.67Z"/>
  </g>
  <g>
    <path class="st0" d="M1120.14,393c-4.41-3.78-5.67-8.42-5.67-13.23,0-3.06,1.04-8.64,5.58-12.46,3.87-3.28,8.37-4.63,14.89-4.63,2.56,0,4.63.27,6.39.54,2.02.32,3.1.54,4.46.58.5.04.5.32.5.58,0,.36-.14,1.44-.23,2.97-.09,1.49-.04,4.14-.13,5.27-.04.67-.13,1.08-.54,1.08-.36,0-.5-.31-.54-.94-.04-.99-.22-2.79-1.71-4.41-1.58-1.67-4.72-2.83-9.09-2.83-2.65,0-4.86.63-6.61,2.16-2.75,2.38-3.96,6.57-3.96,11.38,0,9.27,5.04,15.48,12.6,15.48,3.69,0,5.98-.32,7.74-2.29.63-.68,1.12-1.67,1.49-3.02.22-.94.36-1.26.72-1.26.32,0,.36.45.36.81,0,.76-.54,4.68-.99,6.84-.09.67-.41,1.03-1.17,1.3-1.8.72-4.86,1.04-7.74,1.04-5.85,0-11.61-.99-16.33-4.95Z"/>
    <path class="st0" d="M1174.32,379.68c.13,0,.27,0,.27-.23v-.81c0-6.07,0-6.57-.09-7.83-.09-.99-.41-1.71-1.75-1.93-.32-.04-.9-.09-1.4-.13-.54,0-.76-.32-.76-.45,0-.27.18-.45.81-.45,2.38,0,6.3.14,6.52.14.18,0,5.22-.14,6.98-.14.72,0,.81.18.81.45,0,.22-.13.45-.63.45-.76.09-.81.09-1.26.18-1.04.13-1.35.72-1.49,1.98-.13,1.26-.13,2.16-.13,8.23v6.84c0,3.78.04,6.57.22,8.14.14,1.35.5,1.98,1.71,2.16.54.09,1.31.09,1.67.13.54.04.76.22.76.5,0,.31-.4.4-.9.4-2.75,0-7.2-.13-7.83-.13s-3.82.13-5.89.13c-.76,0-.85-.22-.85-.45,0-.18.22-.45.72-.45.5-.04.81-.04,1.17-.13.99-.18,1.26-.9,1.39-2.21.18-1.62.23-3.87.23-7.65v-2.97c0-.18-.14-.27-.27-.27h-11.88c-.14,0-.27.04-.27.27v4.14c0,3.73.04,4.95.23,6.57.13,1.17.63,1.93,1.84,2.07.58.13,1.21.13,1.53.18.54.04.77.22.77.5,0,.18-.14.4-.77.4-2.25,0-7.56-.13-7.78-.13-.18,0-4.91.13-6.12.13-.45,0-.85-.13-.85-.4s.13-.45.67-.5c.45-.04.67-.04,1.17-.13,1.04-.14,1.39-1.12,1.49-2.34.18-1.67.22-4.19.22-7.96v-6.71c0-6.07-.04-6.88-.13-8.14-.09-1.3-.41-2.03-1.94-2.25-.58-.09-.72-.09-1.21-.13-.63-.04-.67-.36-.67-.5,0-.27.41-.41.86-.41,2.38,0,5.98.14,6.88.14,1.67,0,4.77-.14,6.53-.14.76,0,.85.23.85.5,0,.18-.18.36-.72.41s-.9.09-1.26.18c-1.17.23-1.35,1.17-1.44,2.21-.13,1.26-.13,2.88-.13,7.51v.81c0,.23.13.23.27.23h11.88Z"/>
    <path class="st0" d="M1197,389.89c-.27,0-.41.27-.45.4l-.94,2.29c-.41.99-.68,1.89-.68,2.38,0,1.31,1.71,1.35,2.75,1.44.58.04.72.22.72.41,0,.31-.22.49-.76.49-1.98,0-3.33-.13-5.62-.13-.45,0-3.06.13-4.99.13-.63,0-.81-.18-.81-.45s.23-.45.72-.45c1.93-.22,2.97-.76,4.14-3.42l10.8-23.04c.94-2.07,1.39-2.66,1.89-2.66.45,0,.81.58,1.58,2.12.99,2.21,7.96,16.83,10.66,22.77,1.39,2.88,2.12,3.91,3.64,4.14.36.04.68.09.9.09.5,0,.76.22.76.45,0,.31-.36.45-.81.45-4.54-.04-9.22-.09-11.61-.13-.54,0-.81-.18-.81-.4,0-.27.27-.36.54-.45.36-.13.77-.18.54-.67l-2.47-5.54c-.04-.13-.23-.22-.36-.22h-9.31ZM1205.01,386.34c.27,0,.27-.09.22-.18l-3.55-8.05c-.13-.22-.13-.13-.22.04l-3.33,8.01c-.04.13.04.18.13.18h6.75Z"/>
    <path class="st0" d="M1259.01,392.28c.31,2.52.81,3.51,2.16,3.87.72.23,1.17.23,1.85.27.58.09.72.22.72.5,0,.31-.18.4-.86.4-3.91,0-6.3.05-11.65-.22-.67,0-.81-.31-.81-.5s.18-.31.41-.4c.76-.27.85-.41.67-2.34l-1.21-13.14-8.19,14.35c-1.12,2.02-1.44,2.25-1.75,2.25-.45,0-.63-.31-1.89-2.16-1.67-2.61-3.73-6.21-5.58-9.13-.72-1.21-2.29-4-2.92-4.95l-.99,9.85c-.14,1.94-.14,2.7-.14,3.29,0,1.21.36,1.8,1.44,2.03.5.09.9.13,1.44.18.54,0,.77.18.77.41,0,.31-.18.49-.9.49-1.75,0-4-.13-5.31-.13-1.4,0-3.29.13-4.86.13-.4,0-.81-.09-.81-.49,0-.23.18-.36.72-.41.41-.04.72-.04,1.17-.09,1.17-.23,1.71-.9,2.16-3.87l3.55-23.49c.23-1.3.5-1.67.9-1.67s.76.41,1.62,1.67l11.7,17.82,11.07-18.04c.76-1.08,1.12-1.44,1.49-1.44.5,0,.67.54.85,1.62l3.2,23.35Z"/>
    <path class="st0" d="M1269,379.14c0-5.71-.04-6.75-.09-8.01-.04-1.62-.67-2.07-1.84-2.25-.5-.04-.95-.09-1.4-.13-.54,0-.72-.27-.72-.45,0-.31.36-.45.81-.45,2.57,0,4.37.14,6.62.14,2.88,0,5.44-.14,7.02-.14,8.86,0,10.48,3.78,10.48,6.03,0,3.15-2.34,5.13-5.04,6.39,4.41,1.3,7.92,3.73,7.92,8.5,0,4.36-4.46,8.64-12.55,8.64-1.39,0-6.88-.23-7.83-.23-1.89,0-3.83.13-6.08.13-.63,0-.9-.18-.9-.45,0-.23.13-.45.72-.45.5-.04.81-.04,1.12-.13.95-.14,1.39-.58,1.48-2.12.23-2.25.27-4.32.27-9.49v-5.54ZM1276.47,385.98c0,1.93-.04,4.36.13,6.43.04.9.18,1.35.9,1.8.76.45,1.89.58,2.65.58,2.12,0,4.5-1.39,4.5-5.13,0-1.98-.36-4-2.02-5.53-1.12-1.12-2.66-1.58-3.83-1.67-1.04-.04-1.75,0-2.12.04-.13,0-.22.09-.22.27v3.2ZM1276.47,379.41c0,.32.22.41.45.41.63.18,1.93.13,2.43.13.76,0,2.02-.13,2.52-.58.81-.63,1.26-1.89,1.26-3.51,0-3.24-1.62-5.58-4.77-5.58-.63,0-1.17.04-1.48.18-.18.09-.41.18-.41.72v8.23Z"/>
    <path class="st0" d="M1300.32,379.14c0-6.48-.04-7.2-.13-8.46-.09-.99-.5-1.62-1.44-1.8-.36-.09-.81-.09-1.21-.13-.58-.04-.67-.27-.67-.5s.22-.41.85-.41c2.43,0,4.32.14,6.03.14.72,0,11.07-.05,11.7-.05.77,0,1.62-.04,2.29-.18.27-.09.5-.13.63-.13.23,0,.32.18.27.41-.09.49-.23.99-.32,1.89-.04.99-.09,1.8-.22,4.23,0,.32-.18.63-.45.63-.22,0-.41-.18-.45-.54-.09-.54-.09-.85-.22-1.44-.23-.9-.72-1.44-2.66-1.62-1.48-.09-4.77-.18-6.03-.18-.23,0-.32.13-.32.4v8.24c0,.27.04.36.32.36,1.21,0,4,0,5.58-.04,2.21-.09,2.75-.22,3.24-.99.18-.36.36-.5.54-.5.27,0,.32.27.32.5,0,.45-.27,2.16-.32,3.6-.04.85-.09,2.92-.09,3.38,0,.54-.13.67-.41.67-.22,0-.41-.18-.45-.63-.04-.23-.04-.5-.09-.77-.22-1.21-.67-1.93-2.79-2.07-1.26-.09-4.32-.13-5.58-.13-.23,0-.27.09-.27.31v2.83c0,1.3-.04,3.15,0,4.72.04,2.75.54,3.38,5.13,3.38,1.04,0,2.61-.04,3.74-.45,1.12-.45,1.57-1.39,1.93-3.19.09-.45.27-.67.54-.67.31,0,.36.31.36.81,0,1.71-.41,4.86-.58,5.62-.32.99-.63,1.04-2.12,1.04-6.03,0-8.91-.23-13.18-.23-1.89,0-3.83.13-6.12.13-.76,0-.94-.22-.94-.49,0-.18.13-.41.81-.41.41-.04.72-.04,1.17-.13,1.3-.23,1.44-1.75,1.58-4.5,0-1.49.04-3.64.04-5.8v-6.84Z"/>
    <path class="st0" d="M1327.59,379.14c0-6.08-.04-6.66-.13-7.92-.09-1.67-.81-2.21-1.67-2.29-.72-.13-1.08-.13-1.4-.18-.49,0-.67-.23-.67-.45s.13-.45.81-.45c1.62,0,5.76.14,6.25.14.68,0,4.91-.14,6.93-.14,4.05,0,6.84.41,8.46,1.31,2.16,1.08,3.83,3.01,3.83,6.07s-2.07,5.54-5.35,7.65c2.11,3.24,4.99,7.51,7.47,10.26,2.07,2.38,3.01,2.97,4.27,3.15.41.09.76.09,1.08.13.41.04.63.27.63.5,0,.36-.45.4-.81.4h-3.51c-4.68,0-6.61-.45-8.1-1.39-1.17-.76-2.43-2.34-3.87-4.68-1.89-3.15-2.57-4.46-3.33-5.62-.04-.13-.23-.22-.45-.22l-2.7-.04c-.18,0-.31.09-.31.31v2.38c0,2.92.09,4.82.18,5.99.09.99.32,1.8,1.53,2.11.54.18,1.35.23,1.84.27.72.04.72.27.72.5s-.18.4-.76.4c-2.75,0-7.51-.13-7.74-.13-.45,0-4.68.13-5.98.13-.67,0-.81-.22-.81-.49,0-.23.27-.41.72-.41.36-.04.95-.04,1.39-.13.81-.18,1.17-.86,1.26-2.25.18-1.62.22-4.23.22-8.05v-6.84ZM1335.01,381.57c0,.27.18.45.36.58.77.41,2.16.54,3.33.54.9,0,1.84-.18,2.48-.63.72-.54,1.39-2.12,1.39-4.63,0-5.54-3.78-6.84-5.8-6.84-.58,0-1.26,0-1.49.13-.18.09-.27.14-.27.45v10.39Z"/>
    <path class="st0" d="M1369.8,382.74c0-8.14,5.58-15.43,17.41-15.43,10.26,0,16.69,6.88,16.69,14.54,0,9.13-6.34,16.02-16.96,16.02-11.97,0-17.14-8.23-17.14-15.12ZM1395.27,383.64c0-5.94-2.16-13.72-9.45-13.72-3.46,0-7.38,1.75-7.38,10.89,0,7.2,2.88,14.35,9.58,14.35,2.47,0,7.24-.95,7.24-11.52Z"/>
    <path class="st0" d="M1412.01,379.14c0-6.48-.04-6.79-.13-8.01-.09-1.39-.5-2.07-1.58-2.21-.41-.09-.95-.13-1.44-.18-.4-.09-.76-.18-.76-.45,0-.31.27-.45,1.04-.45,2.34,0,4.63.14,6.3.14.72,0,11.52-.05,12.1-.05.81,0,1.89-.18,2.25-.27.27-.09.58-.18.67-.18.27,0,.32.18.27.36-.04.32-.22,1.21-.31,2.12-.09,1.04-.18,2.21-.23,4.05-.04.54-.18.67-.49.67-.27,0-.41-.27-.45-.63-.04-.5-.04-.72-.18-1.26-.23-.95-.77-1.44-2.66-1.62-1.44-.09-5.17-.18-6.39-.18-.27,0-.36.13-.36.4v8.55c0,.27.04.45.32.45,1.26.04,4.05,0,5.62-.04,2.25-.09,2.7-.18,3.24-1.08.18-.27.36-.41.54-.41.27,0,.27.32.27.54,0,.45-.18,1.98-.32,3.42-.04.86,0,2.92,0,3.38,0,.41-.09.77-.41.77-.22,0-.4-.18-.45-.68-.05-.27-.09-.5-.14-.76-.13-1.26-.58-1.89-2.65-1.98-1.31-.09-4.5-.18-5.76-.18-.23,0-.27.09-.27.32v2.83c0,3.78,0,6.07.23,7.74.09,1.12.36,1.8,1.93,2.03.54.09,1.04.13,1.39.13.63.04.9.22.9.45s-.09.45-.9.45c-2.16,0-2.16-.13-7.2-.13-3.29,0-5.8.13-6.71.13-.58,0-.81-.18-.81-.4,0-.18.04-.41.67-.5.36-.04.67-.04,1.21-.13,1.08-.14,1.3-1.17,1.44-2.88.18-2.25.18-3.65.18-7.42v-6.84Z"/>
    <path class="st0" d="M1452.37,393.58c-4-3.29-5.13-7.25-5.13-11.47,0-2.66.99-7.56,5.08-10.84,3.55-2.88,7.69-3.96,13.45-3.96,2.25,0,4.23.23,5.76.45,1.89.32,2.7.5,3.92.5.45.04.45.32.45.54,0,.31-.09,1.44-.18,2.75-.05,1.3-.09,3.55-.18,4.68-.04.58-.18.94-.54.94-.31,0-.45-.31-.5-.85-.04-.76-.09-2.38-1.48-3.87-1.4-1.48-4.14-2.43-8.05-2.43-2.12,0-4.14.54-5.58,1.75-2.38,1.89-3.51,5.4-3.51,9.63,0,7.74,4.18,13.27,11.07,13.27,3.2,0,5.13-.27,6.71-1.93.5-.54,1.04-1.62,1.3-2.83.18-.81.32-.95.63-.95.27,0,.41.27.41.67,0,.76-.54,4.18-.85,6.08-.14.67-.45,1.08-1.08,1.3-1.58.63-4.37.85-6.88.85-5.22,0-10.44-.81-14.8-4.27Z"/>
    <path class="st0" d="M1481.08,382.74c0-8.14,5.58-15.43,17.41-15.43,10.26,0,16.69,6.88,16.69,14.54,0,9.13-6.34,16.02-16.96,16.02-11.97,0-17.14-8.23-17.14-15.12ZM1506.55,383.64c0-5.94-2.16-13.72-9.45-13.72-3.46,0-7.38,1.75-7.38,10.89,0,7.2,2.88,14.35,9.58,14.35,2.47,0,7.24-.95,7.24-11.52Z"/>
    <path class="st0" d="M1555.96,392.28c.31,2.52.81,3.51,2.16,3.87.72.23,1.17.23,1.85.27.58.09.72.22.72.5,0,.31-.18.4-.86.4-3.91,0-6.3.05-11.65-.22-.67,0-.81-.31-.81-.5s.18-.31.4-.4c.77-.27.86-.41.68-2.34l-1.21-13.14-8.19,14.35c-1.12,2.02-1.44,2.25-1.75,2.25-.45,0-.63-.31-1.89-2.16-1.67-2.61-3.73-6.21-5.58-9.13-.72-1.21-2.29-4-2.92-4.95l-.99,9.85c-.14,1.94-.14,2.7-.14,3.29,0,1.21.36,1.8,1.44,2.03.5.09.9.13,1.44.18.54,0,.77.18.77.41,0,.31-.18.49-.9.49-1.75,0-4-.13-5.31-.13-1.4,0-3.29.13-4.86.13-.4,0-.81-.09-.81-.49,0-.23.18-.36.72-.41.41-.04.72-.04,1.17-.09,1.17-.23,1.71-.9,2.16-3.87l3.55-23.49c.23-1.3.5-1.67.9-1.67s.76.41,1.62,1.67l11.7,17.82,11.07-18.04c.76-1.08,1.12-1.44,1.49-1.44.5,0,.67.54.85,1.62l3.2,23.35Z"/>
    <path class="st0" d="M1598.89,392.28c.31,2.52.81,3.51,2.16,3.87.72.23,1.17.23,1.85.27.58.09.72.22.72.5,0,.31-.18.4-.86.4-3.91,0-6.3.05-11.65-.22-.67,0-.81-.31-.81-.5s.18-.31.4-.4c.77-.27.86-.41.68-2.34l-1.21-13.14-8.19,14.35c-1.12,2.02-1.44,2.25-1.75,2.25-.45,0-.63-.31-1.89-2.16-1.67-2.61-3.73-6.21-5.58-9.13-.72-1.21-2.29-4-2.92-4.95l-.99,9.85c-.14,1.94-.14,2.7-.14,3.29,0,1.21.36,1.8,1.44,2.03.5.09.9.13,1.44.18.54,0,.77.18.77.41,0,.31-.18.49-.9.49-1.75,0-4-.13-5.31-.13-1.4,0-3.29.13-4.86.13-.4,0-.81-.09-.81-.49,0-.23.18-.36.72-.41.41-.04.72-.04,1.17-.09,1.17-.23,1.71-.9,2.16-3.87l3.55-23.49c.23-1.3.5-1.67.9-1.67s.76.41,1.62,1.67l11.7,17.82,11.07-18.04c.76-1.08,1.12-1.44,1.49-1.44.5,0,.67.54.85,1.62l3.2,23.35Z"/>
    <path class="st0" d="M1608.88,379.14c0-6.48-.04-7.2-.13-8.46-.09-.99-.5-1.62-1.44-1.8-.36-.09-.81-.09-1.21-.13-.58-.04-.67-.27-.67-.5s.22-.41.85-.41c2.43,0,4.32.14,6.03.14.72,0,11.07-.05,11.7-.05.77,0,1.62-.04,2.29-.18.27-.09.5-.13.63-.13.23,0,.32.18.27.41-.09.49-.23.99-.32,1.89-.04.99-.09,1.8-.22,4.23,0,.32-.18.63-.45.63-.22,0-.41-.18-.45-.54-.09-.54-.09-.85-.22-1.44-.23-.9-.72-1.44-2.66-1.62-1.48-.09-4.77-.18-6.03-.18-.23,0-.32.13-.32.4v8.24c0,.27.04.36.32.36,1.21,0,4,0,5.58-.04,2.21-.09,2.75-.22,3.24-.99.18-.36.36-.5.54-.5.27,0,.32.27.32.5,0,.45-.27,2.16-.32,3.6-.04.85-.09,2.92-.09,3.38,0,.54-.13.67-.41.67-.22,0-.41-.18-.45-.63-.04-.23-.04-.5-.09-.77-.22-1.21-.67-1.93-2.79-2.07-1.26-.09-4.32-.13-5.58-.13-.23,0-.27.09-.27.31v2.83c0,1.3-.04,3.15,0,4.72.04,2.75.54,3.38,5.13,3.38,1.04,0,2.61-.04,3.74-.45,1.12-.45,1.57-1.39,1.93-3.19.09-.45.27-.67.54-.67.31,0,.36.31.36.81,0,1.71-.41,4.86-.58,5.62-.32.99-.63,1.04-2.12,1.04-6.03,0-8.91-.23-13.18-.23-1.89,0-3.83.13-6.12.13-.76,0-.94-.22-.94-.49,0-.18.13-.41.81-.41.41-.04.72-.04,1.17-.13,1.3-.23,1.44-1.75,1.58-4.5,0-1.49.04-3.64.04-5.8v-6.84Z"/>
    <path class="st0" d="M1636.15,379.14c0-6.08-.04-6.66-.13-7.92-.09-1.67-.81-2.21-1.67-2.29-.72-.13-1.08-.13-1.4-.18-.49,0-.67-.23-.67-.45s.13-.45.81-.45c1.62,0,5.76.14,6.25.14.68,0,4.91-.14,6.93-.14,4.05,0,6.84.41,8.46,1.31,2.16,1.08,3.83,3.01,3.83,6.07s-2.07,5.54-5.35,7.65c2.11,3.24,4.99,7.51,7.47,10.26,2.07,2.38,3.01,2.97,4.27,3.15.41.09.76.09,1.08.13.41.04.63.27.63.5,0,.36-.45.4-.81.4h-3.51c-4.68,0-6.61-.45-8.1-1.39-1.17-.76-2.43-2.34-3.87-4.68-1.89-3.15-2.57-4.46-3.33-5.62-.04-.13-.23-.22-.45-.22l-2.7-.04c-.18,0-.31.09-.31.31v2.38c0,2.92.09,4.82.18,5.99.09.99.32,1.8,1.53,2.11.54.18,1.35.23,1.84.27.72.04.72.27.72.5s-.18.4-.76.4c-2.75,0-7.51-.13-7.74-.13-.45,0-4.68.13-5.98.13-.67,0-.81-.22-.81-.49,0-.23.27-.41.72-.41.36-.04.95-.04,1.39-.13.81-.18,1.17-.86,1.26-2.25.18-1.62.22-4.23.22-8.05v-6.84ZM1643.58,381.57c0,.27.18.45.36.58.77.41,2.16.54,3.33.54.9,0,1.84-.18,2.48-.63.72-.54,1.39-2.12,1.39-4.63,0-5.54-3.78-6.84-5.8-6.84-.58,0-1.26,0-1.49.13-.18.09-.27.14-.27.45v10.39Z"/>
    <path class="st0" d="M1670.89,393.58c-4-3.29-5.13-7.25-5.13-11.47,0-2.66.99-7.56,5.08-10.84,3.55-2.88,7.69-3.96,13.45-3.96,2.25,0,4.23.23,5.76.45,1.89.32,2.7.5,3.92.5.45.04.45.32.45.54,0,.31-.09,1.44-.18,2.75-.05,1.3-.09,3.55-.18,4.68-.04.58-.18.94-.54.94-.31,0-.45-.31-.5-.85-.04-.76-.09-2.38-1.48-3.87-1.4-1.48-4.14-2.43-8.05-2.43-2.12,0-4.14.54-5.58,1.75-2.38,1.89-3.51,5.4-3.51,9.63,0,7.74,4.18,13.27,11.07,13.27,3.2,0,5.13-.27,6.71-1.93.5-.54,1.04-1.62,1.3-2.83.18-.81.32-.95.63-.95.27,0,.41.27.41.67,0,.76-.54,4.18-.85,6.08-.14.67-.45,1.08-1.08,1.3-1.58.63-4.37.85-6.88.85-5.22,0-10.44-.81-14.8-4.27Z"/>
    <path class="st0" d="M1702.75,379.14c0-6.48-.04-7.2-.13-8.46-.09-.99-.5-1.62-1.44-1.8-.36-.09-.81-.09-1.21-.13-.58-.04-.67-.27-.67-.5s.22-.41.85-.41c2.43,0,4.32.14,6.03.14.72,0,11.07-.05,11.7-.05.77,0,1.62-.04,2.29-.18.27-.09.5-.13.63-.13.23,0,.32.18.27.41-.09.49-.23.99-.32,1.89-.04.99-.09,1.8-.22,4.23,0,.32-.18.63-.45.63-.22,0-.41-.18-.45-.54-.09-.54-.09-.85-.22-1.44-.23-.9-.72-1.44-2.66-1.62-1.48-.09-4.77-.18-6.03-.18-.23,0-.32.13-.32.4v8.24c0,.27.04.36.32.36,1.21,0,4,0,5.58-.04,2.21-.09,2.75-.22,3.24-.99.18-.36.36-.5.54-.5.27,0,.32.27.32.5,0,.45-.27,2.16-.32,3.6-.04.85-.09,2.92-.09,3.38,0,.54-.13.67-.41.67-.22,0-.41-.18-.45-.63-.04-.23-.04-.5-.09-.77-.22-1.21-.67-1.93-2.79-2.07-1.26-.09-4.32-.13-5.58-.13-.23,0-.27.09-.27.31v2.83c0,1.3-.04,3.15,0,4.72.04,2.75.54,3.38,5.13,3.38,1.04,0,2.61-.04,3.74-.45,1.12-.45,1.57-1.39,1.93-3.19.09-.45.27-.67.54-.67.31,0,.36.31.36.81,0,1.71-.41,4.86-.58,5.62-.32.99-.63,1.04-2.12,1.04-6.03,0-8.91-.23-13.18-.23-1.89,0-3.83.13-6.12.13-.76,0-.94-.22-.94-.49,0-.18.13-.41.81-.41.41-.04.72-.04,1.17-.13,1.3-.23,1.44-1.75,1.58-4.5,0-1.49.04-3.64.04-5.8v-6.84Z"/>
  </g>
  <g>
    <g>
      <g>
        <g>
          <path class="st0" d="M1090.5,374.9c2.37,2.17-12.6,10.26-13.94,11.03-30.48,17.33-63.45,25.52-98.39,18.27-29.83-6.19-53.12-25.32-86.21-17.9-7.08,1.59-12.92,5.9-20.18,6.14,8.63-8.86,27.55-13.8,39.85-14.82,56.21-4.63,80.59,31.7,146.75,10.39,11.17-3.6,20.89-9.9,32.11-13.1Z"/>
          <path class="st0" d="M77.9,370.84c2.77-.46,4.81.53,7.25,1.51,14.01,5.62,28.33,14.61,42.75,20.72,64.25,27.24,138.56,42.09,208.61,38.58,8.1-.41,22.84-1.54,30.41-3.35,10.37-2.48,48.98-29.47,63.33-36.58,70.43-34.88,148.49-52.45,227.52-47.88,130.56,7.55,222.04,114.31,361.46,80.6,37.34-9.03,51.41-21.53,79.37-44.85,1.08-.9,2.72-3.57,4.07-1.33-36.15,43-105.02,65.24-159.95,68.22-92.29,5.01-138.95-22.03-220.11-51.38-103.63-37.49-211.07-26.82-311.19,15.59l-28.39,14.12c33.68-4.63,65.59-17.47,98.8-24.72,82.73-18.05,195.23-15.08,263.67,40.97,6,4.91,15.21,11.01,16.25,18.84-54.35-58.69-143.21-60.76-216.73-45.22-45.84,9.69-88.42,30.37-134.75,38.07-76.51,12.71-155.56,2.5-227.41-25.57-37.01-14.46-71.14-34.52-104.97-55.02v-1.35Z"/>
        </g>
        <g>
          <path class="st0" d="M1090.5,374.9c2.37,2.17-12.6,10.26-13.94,11.03-30.48,17.33-63.45,25.52-98.39,18.27-29.83-6.19-53.12-25.32-86.21-17.9-7.08,1.59-12.92,5.9-20.18,6.14,8.63-8.86,27.55-13.8,39.85-14.82,56.21-4.63,80.59,31.7,146.75,10.39,11.17-3.6,20.89-9.9,32.11-13.1Z"/>
          <path class="st0" d="M77.9,370.84c2.77-.46,4.81.53,7.25,1.51,14.01,5.62,28.33,14.61,42.75,20.72,64.25,27.24,138.56,42.09,208.61,38.58,8.1-.41,22.84-1.54,30.41-3.35,10.37-2.48,48.98-29.47,63.33-36.58,70.43-34.88,148.49-52.45,227.52-47.88,130.56,7.55,222.04,114.31,361.46,80.6,37.34-9.03,51.41-21.53,79.37-44.85,1.08-.9,2.72-3.57,4.07-1.33-36.15,43-105.02,65.24-159.95,68.22-92.29,5.01-138.95-22.03-220.11-51.38-103.63-37.49-211.07-26.82-311.19,15.59l-28.39,14.12c33.68-4.63,65.59-17.47,98.8-24.72,82.73-18.05,195.23-15.08,263.67,40.97,6,4.91,15.21,11.01,16.25,18.84-54.35-58.69-143.21-60.76-216.73-45.22-45.84,9.69-88.42,30.37-134.75,38.07-76.51,12.71-155.56,2.5-227.41-25.57-37.01-14.46-71.14-34.52-104.97-55.02v-1.35Z"/>
        </g>
      </g>
      <g>
        <g>
          <path class="st0" d="M1090.5,374.9c2.37,2.17-12.6,10.26-13.94,11.03-30.48,17.33-63.45,25.52-98.39,18.27-29.83-6.19-53.12-25.32-86.21-17.9-7.08,1.59-12.92,5.9-20.18,6.14,8.63-8.86,27.55-13.8,39.85-14.82,56.21-4.63,80.59,31.7,146.75,10.39,11.17-3.6,20.89-9.9,32.11-13.1Z"/>
          <path class="st0" d="M77.9,370.84c2.77-.46,4.81.53,7.25,1.51,14.01,5.62,28.33,14.61,42.75,20.72,64.25,27.24,138.56,42.09,208.61,38.58,8.1-.41,22.84-1.54,30.41-3.35,10.37-2.48,48.98-29.47,63.33-36.58,70.43-34.88,148.49-52.45,227.52-47.88,130.56,7.55,222.04,114.31,361.46,80.6,37.34-9.03,51.41-21.53,79.37-44.85,1.08-.9,2.72-3.57,4.07-1.33-36.15,43-105.02,65.24-159.95,68.22-92.29,5.01-138.95-22.03-220.11-51.38-103.63-37.49-211.07-26.82-311.19,15.59l-28.39,14.12c33.68-4.63,65.59-17.47,98.8-24.72,82.73-18.05,195.23-15.08,263.67,40.97,6,4.91,15.21,11.01,16.25,18.84-54.35-58.69-143.21-60.76-216.73-45.22-45.84,9.69-88.42,30.37-134.75,38.07-76.51,12.71-155.56,2.5-227.41-25.57-37.01-14.46-71.14-34.52-104.97-55.02v-1.35Z"/>
        </g>
        <g>
          <path class="st0" d="M1090.5,374.9c2.37,2.17-12.6,10.26-13.94,11.03-30.48,17.33-63.45,25.52-98.39,18.27-29.83-6.19-53.12-25.32-86.21-17.9-7.08,1.59-12.92,5.9-20.18,6.14,8.63-8.86,27.55-13.8,39.85-14.82,56.21-4.63,80.59,31.7,146.75,10.39,11.17-3.6,20.89-9.9,32.11-13.1Z"/>
          <path class="st0" d="M77.9,370.84c2.77-.46,4.81.53,7.25,1.51,14.01,5.62,28.33,14.61,42.75,20.72,64.25,27.24,138.56,42.09,208.61,38.58,8.1-.41,22.84-1.54,30.41-3.35,10.37-2.48,48.98-29.47,63.33-36.58,70.43-34.88,148.49-52.45,227.52-47.88,130.56,7.55,222.04,114.31,361.46,80.6,37.34-9.03,51.41-21.53,79.37-44.85,1.08-.9,2.72-3.57,4.07-1.33-36.15,43-105.02,65.24-159.95,68.22-92.29,5.01-138.95-22.03-220.11-51.38-103.63-37.49-211.07-26.82-311.19,15.59l-28.39,14.12c33.68-4.63,65.59-17.47,98.8-24.72,82.73-18.05,195.23-15.08,263.67,40.97,6,4.91,15.21,11.01,16.25,18.84-54.35-58.69-143.21-60.76-216.73-45.22-45.84,9.69-88.42,30.37-134.75,38.07-76.51,12.71-155.56,2.5-227.41-25.57-37.01-14.46-71.14-34.52-104.97-55.02v-1.35Z"/>
        </g>
      </g>
    </g>
    <g>
      <g>
        <g>
          <path class="st0" d="M1090.5,374.9c2.37,2.17-12.6,10.26-13.94,11.03-30.48,17.33-63.45,25.52-98.39,18.27-29.83-6.19-53.12-25.32-86.21-17.9-7.08,1.59-12.92,5.9-20.18,6.14,8.63-8.86,27.55-13.8,39.85-14.82,56.21-4.63,80.59,31.7,146.75,10.39,11.17-3.6,20.89-9.9,32.11-13.1Z"/>
          <path class="st0" d="M77.9,370.84c2.77-.46,4.81.53,7.25,1.51,14.01,5.62,28.33,14.61,42.75,20.72,64.25,27.24,138.56,42.09,208.61,38.58,8.1-.41,22.84-1.54,30.41-3.35,10.37-2.48,48.98-29.47,63.33-36.58,70.43-34.88,148.49-52.45,227.52-47.88,130.56,7.55,222.04,114.31,361.46,80.6,37.34-9.03,51.41-21.53,79.37-44.85,1.08-.9,2.72-3.57,4.07-1.33-36.15,43-105.02,65.24-159.95,68.22-92.29,5.01-138.95-22.03-220.11-51.38-103.63-37.49-211.07-26.82-311.19,15.59l-28.39,14.12c33.68-4.63,65.59-17.47,98.8-24.72,82.73-18.05,195.23-15.08,263.67,40.97,6,4.91,15.21,11.01,16.25,18.84-54.35-58.69-143.21-60.76-216.73-45.22-45.84,9.69-88.42,30.37-134.75,38.07-76.51,12.71-155.56,2.5-227.41-25.57-37.01-14.46-71.14-34.52-104.97-55.02v-1.35Z"/>
        </g>
        <g>
          <path class="st0" d="M1090.5,374.9c2.37,2.17-12.6,10.26-13.94,11.03-30.48,17.33-63.45,25.52-98.39,18.27-29.83-6.19-53.12-25.32-86.21-17.9-7.08,1.59-12.92,5.9-20.18,6.14,8.63-8.86,27.55-13.8,39.85-14.82,56.21-4.63,80.59,31.7,146.75,10.39,11.17-3.6,20.89-9.9,32.11-13.1Z"/>
          <path class="st0" d="M77.9,370.84c2.77-.46,4.81.53,7.25,1.51,14.01,5.62,28.33,14.61,42.75,20.72,64.25,27.24,138.56,42.09,208.61,38.58,8.1-.41,22.84-1.54,30.41-3.35,10.37-2.48,48.98-29.47,63.33-36.58,70.43-34.88,148.49-52.45,227.52-47.88,130.56,7.55,222.04,114.31,361.46,80.6,37.34-9.03,51.41-21.53,79.37-44.85,1.08-.9,2.72-3.57,4.07-1.33-36.15,43-105.02,65.24-159.95,68.22-92.29,5.01-138.95-22.03-220.11-51.38-103.63-37.49-211.07-26.82-311.19,15.59l-28.39,14.12c33.68-4.63,65.59-17.47,98.8-24.72,82.73-18.05,195.23-15.08,263.67,40.97,6,4.91,15.21,11.01,16.25,18.84-54.35-58.69-143.21-60.76-216.73-45.22-45.84,9.69-88.42,30.37-134.75,38.07-76.51,12.71-155.56,2.5-227.41-25.57-37.01-14.46-71.14-34.52-104.97-55.02v-1.35Z"/>
        </g>
      </g>
      <g>
        <g>
          <path class="st0" d="M1090.5,374.9c2.37,2.17-12.6,10.26-13.94,11.03-30.48,17.33-63.45,25.52-98.39,18.27-29.83-6.19-53.12-25.32-86.21-17.9-7.08,1.59-12.92,5.9-20.18,6.14,8.63-8.86,27.55-13.8,39.85-14.82,56.21-4.63,80.59,31.7,146.75,10.39,11.17-3.6,20.89-9.9,32.11-13.1Z"/>
          <path class="st0" d="M77.9,370.84c2.77-.46,4.81.53,7.25,1.51,14.01,5.62,28.33,14.61,42.75,20.72,64.25,27.24,138.56,42.09,208.61,38.58,8.1-.41,22.84-1.54,30.41-3.35,10.37-2.48,48.98-29.47,63.33-36.58,70.43-34.88,148.49-52.45,227.52-47.88,130.56,7.55,222.04,114.31,361.46,80.6,37.34-9.03,51.41-21.53,79.37-44.85,1.08-.9,2.72-3.57,4.07-1.33-36.15,43-105.02,65.24-159.95,68.22-92.29,5.01-138.95-22.03-220.11-51.38-103.63-37.49-211.07-26.82-311.19,15.59l-28.39,14.12c33.68-4.63,65.59-17.47,98.8-24.72,82.73-18.05,195.23-15.08,263.67,40.97,6,4.91,15.21,11.01,16.25,18.84-54.35-58.69-143.21-60.76-216.73-45.22-45.84,9.69-88.42,30.37-134.75,38.07-76.51,12.71-155.56,2.5-227.41-25.57-37.01-14.46-71.14-34.52-104.97-55.02v-1.35Z"/>
        </g>
        <g>
          <path class="st0" d="M1090.5,374.9c2.37,2.17-12.6,10.26-13.94,11.03-30.48,17.33-63.45,25.52-98.39,18.27-29.83-6.19-53.12-25.32-86.21-17.9-7.08,1.59-12.92,5.9-20.18,6.14,8.63-8.86,27.55-13.8,39.85-14.82,56.21-4.63,80.59,31.7,146.75,10.39,11.17-3.6,20.89-9.9,32.11-13.1Z"/>
          <path class="st0" d="M77.9,370.84c2.77-.46,4.81.53,7.25,1.51,14.01,5.62,28.33,14.61,42.75,20.72,64.25,27.24,138.56,42.09,208.61,38.58,8.1-.41,22.84-1.54,30.41-3.35,10.37-2.48,48.98-29.47,63.33-36.58,70.43-34.88,148.49-52.45,227.52-47.88,130.56,7.55,222.04,114.31,361.46,80.6,37.34-9.03,51.41-21.53,79.37-44.85,1.08-.9,2.72-3.57,4.07-1.33-36.15,43-105.02,65.24-159.95,68.22-92.29,5.01-138.95-22.03-220.11-51.38-103.63-37.49-211.07-26.82-311.19,15.59l-28.39,14.12c33.68-4.63,65.59-17.47,98.8-24.72,82.73-18.05,195.23-15.08,263.67,40.97,6,4.91,15.21,11.01,16.25,18.84-54.35-58.69-143.21-60.76-216.73-45.22-45.84,9.69-88.42,30.37-134.75,38.07-76.51,12.71-155.56,2.5-227.41-25.57-37.01-14.46-71.14-34.52-104.97-55.02v-1.35Z"/>
        </g>
      </g>
    </g>
  </g>
</svg>